<svg width="39" height="23" viewBox="0 0 39 23" fill="none" xmlns="http://www.w3.org/2000/svg">
<path d="M-2.67029e-05 11.4091C0.0158958 11.0012 0.183868 10.5295 0.463684 10.2321L9.59373 0.531385C10.2123 -0.024659 11.3988 -0.253925 12.0902 0.388894C12.7712 1.02215 12.7509 2.24971 12.0727 2.88533L5.65324 9.69726H37.0901C38.0354 9.69726 38.802 10.4639 38.802 11.4092C38.802 12.3546 38.0354 13.1212 37.0901 13.1212H5.65324L12.0727 19.9331C12.657 20.5182 12.7648 21.7895 12.0902 22.4295C11.4159 23.07 10.1872 22.8654 9.59373 22.2866L0.463684 12.5859C0.15123 12.2539 -0.00082016 11.8642 -2.67029e-05 11.4089V11.4091Z" fill="#A65E34"/>
</svg>
