<svg width="39" height="24" viewBox="0 0 39 24" fill="none" xmlns="http://www.w3.org/2000/svg">
<path d="M38.802 12.0549C38.7861 11.6469 38.6181 11.1753 38.3383 10.8779L29.2083 1.17714C28.5897 0.621093 27.4032 0.391827 26.7118 1.03465C26.0308 1.66791 26.0511 2.89546 26.7293 3.53109L33.1488 10.343H1.71195C0.766631 10.343 0 11.1096 0 12.055C0 13.0003 0.766601 13.7669 1.71195 13.7669H33.1488L26.7293 20.5788C26.145 21.1639 26.0372 22.4353 26.7118 23.0753C27.3861 23.7157 28.6148 23.5111 29.2083 22.9324L38.3383 13.2316C38.6508 12.8997 38.8028 12.51 38.802 12.0546V12.0549Z" fill="#A65E34"/>
</svg>
