<?xml version="1.0" encoding="UTF-8"?>
<!DOCTYPE svg PUBLIC "-//W3C//DTD SVG 1.1//EN" "http://www.w3.org/Graphics/SVG/1.1/DTD/svg11.dtd">
<!-- Creator: CorelDRAW 2017 -->
<svg xmlns="http://www.w3.org/2000/svg" xml:space="preserve" width="79.375mm" height="66.1458mm" version="1.1" style="shape-rendering:geometricPrecision; text-rendering:geometricPrecision; image-rendering:optimizeQuality; fill-rule:evenodd; clip-rule:evenodd"
viewBox="0 0 7938 6615"
 xmlns:xlink="http://www.w3.org/1999/xlink">
 <defs>
  <style type="text/css">
   <![CDATA[
    .fil0 {fill:#9E5F3A}
   ]]>
  </style>
 </defs>
 <g id="Слой_x0020_1">
  <metadata id="CorelCorpID_0Corel-Layer"/>
  <g id="_2248295474480">
   <path class="fil0" d="M6570 1094c-60,28 -245,209 -596,579 -281,298 -611,645 -735,775 -124,130 -377,398 -566,596 -896,945 -1380,1450 -1418,1476 -21,17 -109,34 -194,40l-153 13 -415 -488c-228,-269 -430,-500 -447,-520 -100,-104 -509,-598 -549,-664 -81,-130 -164,-187 -273,-187 -253,0 -462,209 -457,460 0,145 36,226 164,372 57,66 177,202 264,307 88,102 185,215 219,253 32,36 209,243 392,460 464,545 626,703 820,794 219,104 347,130 590,115 386,-21 590,-134 960,-530 296,-315 537,-570 905,-954 153,-160 483,-509 737,-777 253,-270 488,-520 521,-556 34,-34 132,-141 219,-234 88,-92 255,-269 375,-392 264,-273 296,-328 298,-513 0,-120 -8,-156 -64,-245 -120,-194 -390,-277 -596,-181l0 0 1 -1z"/>
  </g>
 </g>
</svg>
