<svg width="383" height="91" viewBox="0 0 383 91" fill="none" xmlns="http://www.w3.org/2000/svg">
<path d="M81.7651 25.9134C83.8662 26.7138 85.6671 27.6143 87.368 28.6148C83.0657 16.6086 73.4608 7.00361 61.3545 2.60133C62.355 4.30221 63.2555 6.20321 64.0559 8.20424C65.7568 12.3064 67.0574 16.9087 68.058 21.9113C73.0606 23.0119 77.763 24.3126 81.7651 25.9134Z" fill="#00E3E3"/>
<path d="M44.4955 5.10263C48.7977 7.10367 52.9999 9.60497 56.9019 12.4064C53.8003 4.40227 49.7982 0 46.4965 0C44.7956 0 42.7946 1.20061 40.9937 3.60186C42.2943 4.10212 43.2948 4.60238 44.4955 5.10263Z" fill="#00E3E3"/>
<path d="M11.2787 61.1316C9.1776 60.3312 7.37666 59.3307 5.67578 58.4302C10.0781 70.4364 19.683 80.0414 31.7893 84.4437C30.7888 82.7428 29.8883 80.8418 29.0879 78.8408C27.387 74.7387 26.0864 70.1363 25.0858 65.1337C19.9832 64.1332 15.3808 62.7324 11.2787 61.1316Z" fill="#00E3E3"/>
<path d="M86.4676 49.1254C88.7688 47.2244 90.0695 45.3234 90.0695 43.6225C90.0695 40.3208 85.6672 36.3188 77.6631 33.3172C80.7647 37.7195 83.5661 42.3219 85.6672 47.2244C85.9674 47.7247 86.2675 48.425 86.4676 49.1254Z" fill="#00E3E3"/>
<path d="M4.52099 39.9761C3.52047 41.1767 3.02021 42.3774 3.02021 43.578C3.02021 47.8802 10.5241 53.283 23.6309 56.3846C23.2307 52.2825 22.9305 47.9803 22.9305 43.578C22.9305 39.1757 23.1306 34.8735 23.6309 30.7714C14.8263 32.8724 8.62311 35.974 5.42145 39.0757C4.92119 37.6749 4.42094 36.2742 4.12078 34.8735C2.82011 30.3711 2.2198 25.4686 3.02021 20.7662C3.42042 18.3649 4.22083 16.0637 5.62156 14.0627C6.22187 13.1622 7.02228 12.4619 7.72265 11.6614C11.0244 9.0601 14.8263 8.05959 19.0285 8.25969C19.7289 8.25969 20.3292 8.35975 20.9295 8.35975C14.226 13.2623 8.92327 20.0658 5.92171 27.9699C5.92171 28.17 6.02177 28.3701 6.02177 28.4702C7.6226 27.5697 9.32348 26.7693 11.3245 25.9689C15.4266 24.268 20.029 22.9673 25.0316 21.9668C25.9321 17.6646 27.0326 13.5624 28.3333 9.96057C29.9341 10.4608 31.4349 11.0611 32.9357 11.7615C33.9362 12.1617 34.9367 12.662 35.9373 13.1622C35.1368 15.4634 34.3364 17.9647 33.6361 20.7662C37.7382 20.2659 42.0404 20.0658 46.4427 20.0658C46.7429 20.0658 46.943 20.0658 47.2431 20.0658C48.944 21.2664 50.5448 22.5671 52.0456 23.8678C53.9466 25.4686 55.8476 27.1695 57.6485 28.8704C54.1467 28.5702 50.4448 28.3701 46.4427 28.3701C41.24 28.3701 36.4375 28.6703 32.0352 29.2706C31.4349 33.6729 31.1348 38.4753 31.1348 43.678C31.1348 48.8807 31.4349 53.6832 32.0352 58.0855C36.4375 58.6858 41.24 58.986 46.4427 58.986C51.6454 58.986 56.4479 58.6858 60.8502 58.0855C61.4505 53.6832 61.7506 48.8807 61.7506 43.678C61.7506 39.676 61.5505 35.974 61.2504 32.4722C64.452 35.7739 67.3535 39.2758 70.0549 42.9777C70.0549 43.1778 70.0549 43.4779 70.0549 43.678C70.0549 48.0803 69.8548 52.3825 69.3546 56.4847C72.156 55.7843 74.6573 55.0839 76.9585 54.1835C78.1591 56.6848 79.2597 59.1861 80.0601 61.7874C76.3582 63.1881 72.3561 64.2887 67.9538 65.0891C66.9533 70.0917 65.6526 74.6941 63.9518 78.7962C63.1514 80.6972 62.3509 82.4982 61.4505 84.099C61.6506 84.099 61.7506 84.199 61.9507 84.199C70.0549 81.1975 76.8585 75.8947 81.761 69.0912C82.1612 72.3929 81.9611 75.7947 80.6604 78.8963C77.3587 86.8004 68.0539 88.3012 60.45 87.2006C57.1482 86.7003 54.0466 85.8999 50.945 84.7993C54.0466 81.5977 57.2483 75.3945 59.2493 66.4899C55.1472 66.8901 50.845 67.1902 46.4427 67.1902C42.0404 67.1902 37.7382 66.9901 33.6361 66.4899C36.8377 79.5966 42.2405 87.1005 46.5428 87.1005C47.6433 87.1005 48.8439 86.6003 50.1446 85.5998C55.4474 88.001 61.0503 89.8019 66.8533 90.1021C71.4557 90.3022 76.1581 89.4017 79.9601 86.6003C83.0617 84.3991 85.1628 81.1975 86.3634 77.5956C89.3649 68.591 86.7636 58.2856 83.0617 49.8813C78.0591 38.4753 69.9549 28.2701 60.45 20.1659C54.747 15.3634 48.5438 11.0611 41.7403 7.85949C33.436 3.95747 23.3307 1.05596 14.126 3.35715C7.12233 5.05803 1.81959 10.2607 0.418862 17.3644C-0.981864 25.0684 1.31933 33.0725 4.52099 39.9761Z" fill="#00E3E3"/>
<path d="M112.232 34.1573V39.3686C112.232 43.4712 112.564 46.0214 113.119 47.7955C112.232 47.7955 111.012 47.6846 109.792 47.6846C108.573 47.6846 107.242 47.6846 106.355 47.7955C106.799 45.2453 106.91 42.8059 106.91 39.3686V24.9543C106.91 21.9605 106.799 18.745 106.022 16.7492C107.131 16.7492 108.351 16.8601 109.349 16.8601C112.786 16.8601 115.558 16.6383 118.884 16.6383C123.763 16.6383 127.311 18.745 127.311 24.289C127.311 30.72 122.211 33.9355 116.223 34.1573C115.004 34.2682 113.451 34.2682 112.232 34.1573ZM112.232 31.0527C113.119 31.2744 114.117 31.3853 115.115 31.3853C119.661 31.3853 121.878 29.1677 121.878 25.176C121.878 21.2952 119.661 19.1885 115.669 19.1885C115.004 19.1885 114.117 19.2994 112.343 19.4103C112.343 20.9626 112.121 23.0693 112.121 24.6216V31.0527H112.232Z" fill="#00E3E3"/>
<path d="M141.504 19.1885C140.728 19.1885 140.062 19.1886 138.51 19.4103C138.399 21.0735 138.288 22.404 138.288 24.6216V39.3686C138.288 43.4712 138.621 46.0214 139.175 47.7955C138.51 47.7955 137.18 47.6846 135.849 47.6846C134.518 47.6846 133.188 47.6846 132.412 47.7955C132.855 44.8017 132.966 43.2494 132.966 39.3686V24.9543C132.966 21.9605 132.744 18.745 132.079 16.7492C133.188 16.7492 134.186 16.7492 135.184 16.7492C138.177 16.7492 140.173 16.6383 143.832 16.6383C147.27 16.6383 149.044 17.0818 150.485 18.3015C151.927 19.5212 152.703 21.2953 152.703 23.7346C152.703 27.948 150.042 30.1656 146.493 31.4962C147.824 33.2703 149.709 36.0422 151.705 39.1469C154.255 43.0277 156.694 46.2432 158.579 47.3519L158.358 47.7955C155.364 47.9064 152.814 47.9064 150.818 48.0172C150.152 46.7976 149.487 45.6888 148.711 44.3582C147.159 41.6971 145.274 38.8142 143.278 35.9314C141.836 33.8247 140.395 32.1615 139.286 31.0527L139.397 30.4983C140.062 30.4983 140.949 30.72 141.947 30.4983C144.387 30.2765 147.159 28.7242 147.159 24.6216C147.38 21.1844 145.163 19.1885 141.504 19.1885Z" fill="#00E3E3"/>
<path d="M159.245 32.605C159.245 22.8476 166.452 15.7513 176.209 15.7513C186.521 15.7513 192.398 22.404 192.398 31.8288C192.398 41.9188 185.19 49.0151 174.99 49.0151C165.676 49.0151 159.245 42.3624 159.245 32.605ZM186.299 32.8267C186.299 24.1781 182.086 18.4124 175.877 18.4124C169.335 18.4124 165.343 23.402 165.343 31.6071C165.343 40.2557 169.556 45.9105 175.877 45.9105C182.308 46.0214 186.299 41.0318 186.299 32.8267Z" fill="#00E3E3"/>
<path d="M208.586 34.4899C208.254 35.5987 207.921 37.0402 207.699 38.3707C205.925 38.0381 204.706 37.9272 203.375 37.9272H201.823C199.494 37.9272 198.275 37.9272 196.501 38.5925L196.279 38.1489C196.611 37.0401 196.944 35.5987 197.166 34.379C198.94 34.6008 200.381 34.7117 201.712 34.7117H203.264C204.706 34.7117 206.812 34.6008 208.476 34.1573L208.586 34.4899Z" fill="#00E3E3"/>
<path d="M218.233 47.7955C216.902 47.7955 215.571 47.7955 214.795 47.9063C215.239 45.3561 215.461 42.9168 215.461 39.4795V24.8434C215.461 23.1802 215.461 21.1844 215.35 19.4103H212.689C209.917 19.4103 206.923 19.6321 204.816 21.7388L204.151 21.6279L204.816 16.7492C208.143 16.7492 210.582 16.8601 212.799 16.8601H222.779C225.551 16.8601 227.325 16.8601 232.203 16.6383C231.76 18.1906 231.316 19.8538 230.984 21.517H230.318C228.544 19.4103 225.551 19.2994 222.668 19.2994H220.894C220.783 20.9626 220.672 23.0693 220.672 24.8434V39.2577C220.672 43.3603 220.894 45.9105 221.448 47.6846C220.783 47.7955 219.452 47.7955 218.233 47.7955Z" fill="#00E3E3"/>
<path d="M244.733 19.1885C243.957 19.1885 243.291 19.1886 241.739 19.4103C241.628 21.0735 241.517 22.404 241.517 24.6216V39.3686C241.517 43.4712 241.85 46.0214 242.404 47.7955C241.739 47.7955 240.409 47.6846 239.078 47.6846C237.747 47.6846 236.417 47.6846 235.641 47.7955C236.084 44.8017 236.195 43.2494 236.195 39.3686V24.9543C236.195 21.9605 235.973 18.745 235.308 16.7492C236.417 16.7492 237.415 16.7492 238.413 16.7492C241.407 16.7492 243.402 16.6383 247.061 16.6383C250.499 16.6383 252.273 17.0818 253.714 18.3015C255.156 19.5212 255.932 21.2953 255.932 23.7346C255.932 27.948 253.271 30.1656 249.722 31.4962C251.053 33.2703 252.938 36.0422 254.934 39.1469C257.484 43.0277 259.923 46.2432 261.808 47.3519L261.587 47.7955C258.593 47.9064 256.043 47.9064 254.047 48.0172C253.381 46.7976 252.716 45.6888 251.94 44.3582C250.388 41.6971 248.503 38.8142 246.507 35.9314C245.066 33.8247 243.624 32.1615 242.515 31.0527L242.626 30.4983C243.291 30.4983 244.178 30.72 245.176 30.4983C247.616 30.2765 250.388 28.7242 250.388 24.6216C250.609 21.1844 248.392 19.1885 244.733 19.1885Z" fill="#00E3E3"/>
<path d="M275.668 29.7221C277.885 29.7221 279.77 29.6112 281.877 29.3895L282.21 29.7221C281.766 30.72 281.323 32.0506 280.99 33.1594C278.661 32.9376 276.998 32.8267 275.113 32.8267H271.676V40.1448C271.676 43.9147 272.23 45.1344 276.887 45.1344C279.659 45.1344 282.431 44.9126 284.649 42.695L285.314 42.9168C284.871 44.58 284.427 46.4649 284.205 48.1281C279.659 47.9064 276 47.9063 272.785 47.9063C269.569 47.9063 267.573 47.9063 265.689 48.0172C266.021 45.7996 266.354 43.0276 266.354 39.5904V25.176C266.354 22.1823 266.132 18.9668 265.467 16.9709C266.576 16.9709 267.795 16.9709 268.571 16.9709H276.776C279.327 16.9709 280.768 16.9709 283.54 16.8601C282.986 18.3015 282.431 19.8538 282.099 21.6279L281.433 21.7388C279.881 19.8538 277.331 19.6321 274.781 19.6321C274.005 19.6321 273.007 19.6321 271.676 19.7429C271.565 20.9626 271.454 23.0693 271.454 24.9543V29.833H275.668V29.7221Z" fill="#00E3E3"/>
<path d="M297.622 16.7492C298.398 18.0798 298.842 19.0777 300.616 21.4061L311.815 35.9314L314.809 39.8121C314.809 39.036 314.698 38.149 314.698 36.5966V27.7263C314.698 24.0673 314.476 20.2973 313.589 16.9709C314.254 16.9709 315.474 16.9709 316.583 16.9709C317.47 16.9709 318.468 16.9709 319.133 16.9709C318.578 18.9668 318.578 24.3999 318.578 29.7221V42.0297C318.578 44.1365 318.689 46.354 319.022 48.4607C318.468 48.4607 317.581 48.4607 316.804 48.4607C315.917 48.4607 315.141 48.4607 314.476 48.4607C313.589 47.1302 312.702 45.7997 311.704 44.4691L297.068 25.7304C296.403 24.8434 295.626 23.8455 295.072 22.9584C295.072 23.5128 295.072 24.1781 295.072 24.9543V39.1469C295.072 42.5841 295.294 45.2452 296.181 47.9063C295.294 47.9063 294.296 47.7955 293.298 47.7955C292.411 47.7955 291.302 47.7955 290.637 47.9063C291.191 45.1344 291.302 43.1385 291.302 39.923V25.0652C291.302 22.8476 291.191 18.6341 290.415 16.8601C291.635 16.8601 292.522 16.8601 293.741 16.8601C295.405 16.8601 296.735 16.8601 297.622 16.7492Z" fill="#00E3E3"/>
<path d="M330.332 16.8601C333.437 16.8601 337.317 16.7492 340.533 16.7492C344.414 16.7492 347.629 17.1927 350.068 18.5233C354.06 20.7408 356.278 25.2869 356.278 30.8309C356.278 40.5883 349.403 47.9063 338.204 47.9063C335.876 47.9063 333.547 47.6846 330.886 47.6846C329.556 47.6846 327.671 47.6846 326.784 47.7955C327.116 45.467 327.449 44.58 327.449 39.3686V24.9543C327.449 21.9605 327.227 18.745 326.562 16.7492C327.671 16.8601 329.334 16.8601 330.332 16.8601ZM347.407 22.8476C345.079 20.1865 341.753 19.5212 338.093 19.5212C336.209 19.5212 334.545 19.6321 332.882 19.7429C332.882 21.2952 332.771 23.1802 332.771 24.9543V39.3686C332.771 44.4691 333.437 45.0235 338.759 45.0235C345.855 45.0235 350.401 40.4774 350.401 32.3832C350.401 28.2807 349.403 25.0652 347.407 22.8476Z" fill="#00E3E3"/>
<path d="M367.144 48.9043C364.816 48.9043 362.265 48.4608 360.048 47.5737C360.602 46.1323 361.046 43.9147 361.378 42.3624L362.044 42.2515C363.374 44.4691 365.592 45.9105 368.364 45.9105C371.801 45.9105 374.24 43.8038 374.24 40.8101C374.24 33.2702 360.381 34.7117 360.381 25.0652C360.381 19.5212 364.705 15.7513 371.358 15.7513C373.686 15.7513 376.125 16.1948 378.232 17.0818C377.567 18.6341 377.123 20.2974 376.791 21.7388L376.125 21.8496C374.573 19.6321 372.91 18.745 370.249 18.745C367.144 18.745 365.148 20.5191 365.148 23.0693C365.148 29.7221 379.119 28.8351 379.119 38.5925C379.23 44.58 374.24 48.9043 367.144 48.9043Z" fill="#00E3E3"/>
<path d="M116.668 67.9756H109.461L108.131 69.9714H105.913L113.009 59.4379L120.217 69.9714H117.999L116.668 67.9756ZM110.57 66.3124H115.56L113.009 62.4316L110.57 66.3124Z" fill="#00E3E3"/>
<path d="M132.302 69.9714V65.6471H123.986V69.9714H121.99V59.6596H123.986V63.873H132.302V59.6596H134.298V69.9714H132.302Z" fill="#00E3E3"/>
<path d="M146.717 67.9756H139.51L138.179 69.9714H135.961L143.058 59.4379L150.265 69.9714H148.047L146.717 67.9756ZM140.507 66.3124H145.497L142.947 62.4316L140.507 66.3124Z" fill="#00E3E3"/>
<path d="M150.486 68.4191C150.93 68.53 151.263 68.53 151.706 68.53C152.482 68.53 152.926 68.1973 152.926 66.8668V59.5487H164.679V69.8605H162.683V61.4337H154.922V66.9777C154.922 69.417 154.145 70.1932 152.039 70.1932C151.595 70.1932 151.152 70.1932 150.375 69.9714L150.486 68.4191Z" fill="#00E3E3"/>
<path d="M168.117 70.1932V59.6596H170.113V66.5341L180.203 59.5487V70.0823H178.207V63.3186L168.117 70.1932Z" fill="#00E3E3"/>
<path d="M187.076 69.9714V61.3228H182.198V59.5487H193.951V61.3228H189.072V69.9714H187.076Z" fill="#00E3E3"/>
<path d="M195.948 70.1932V59.6596H197.944V66.5341L208.034 59.5487V70.0823H206.038V63.3186L195.948 70.1932Z" fill="#00E3E3"/>
<path d="M217.901 63.873L223.113 69.9714H220.452L216.238 65.0927L213.355 67.4212V69.8605H211.359V59.5487H213.355V65.0927L220.23 59.5487H222.891L217.901 63.873Z" fill="#00E3E3"/>
<path d="M233.868 67.9756H226.661L225.33 69.9714H223.113L230.209 59.4379L237.416 69.9714H235.199L233.868 67.9756ZM227.77 66.3124H232.759L230.209 62.4316L227.77 66.3124Z" fill="#00E3E3"/>
<path d="M244.291 69.9714V59.6596H251.165C253.494 59.6596 255.046 60.214 255.046 62.5425C255.046 63.4295 254.491 64.0948 253.826 64.3165C254.935 64.4274 255.933 65.5362 255.933 66.8668C255.933 69.0844 254.713 69.9714 251.609 69.9714H244.291ZM246.397 61.4337V63.7621H251.165C252.163 63.7621 252.828 63.4295 252.828 62.5425C252.828 61.6554 252.163 61.3228 251.165 61.3228H246.397V61.4337ZM246.397 65.5362V68.1973H251.609C252.828 68.1973 253.604 67.8647 253.604 66.8668C253.604 65.8688 252.939 65.5362 251.609 65.5362H246.397Z" fill="#00E3E3"/>
<path d="M258.594 69.9714V59.6596H260.701V69.9714H258.594Z" fill="#00E3E3"/>
<path d="M271.678 66.2015V64.4274H277.444C277.444 64.6492 277.554 64.8709 277.554 65.0927C277.444 68.0864 274.561 70.0823 270.68 70.0823C266.134 70.0823 263.251 67.8647 263.251 64.6492C263.251 61.4337 266.245 59.327 270.569 59.327C272.454 59.327 274.45 59.6596 276.002 60.3249V62.2098C274.893 61.6554 273.452 61.101 270.902 61.101C267.908 61.101 265.579 62.3207 265.579 64.6492C265.579 66.8668 267.797 68.1973 270.68 68.1973C272.897 68.1973 274.782 67.5321 275.226 66.0906H271.678V66.2015Z" fill="#00E3E3"/>
<path d="M285.094 69.9714V59.6596H291.414C295.517 59.6596 298.289 61.2119 298.289 64.8709C298.289 68.53 295.517 70.0823 291.414 70.0823H285.094V69.9714ZM291.414 68.1973C293.743 68.1973 296.071 67.4212 296.071 64.7601C296.071 62.0989 293.743 61.3228 291.414 61.3228H287.201V68.0864H291.414V68.1973Z" fill="#00E3E3"/>
<path d="M309.488 67.8647H303.057L301.726 69.9714H299.398L306.272 59.4379L313.147 69.9714H310.819L309.488 67.8647ZM304.055 66.0906H308.268L306.162 62.7642L304.055 66.0906Z" fill="#00E3E3"/>
<path d="M316.584 69.9714V61.4337H311.927V59.6596H323.348V61.4337H318.691V69.9714H316.584Z" fill="#00E3E3"/>
<path d="M332.218 67.8647H325.787L324.456 69.9714H322.128L329.002 59.4379L335.877 69.9714H333.549L332.218 67.8647ZM326.896 66.0906H331.109L329.002 62.7642L326.896 66.0906Z" fill="#00E3E3"/>
<path d="M383 53.3395H106.022V54.4483H383V53.3395Z" fill="#00E3E3"/>
</svg>
