<?xml version="1.0" encoding="UTF-8"?>
<!DOCTYPE svg PUBLIC "-//W3C//DTD SVG 1.1//EN" "http://www.w3.org/Graphics/SVG/1.1/DTD/svg11.dtd">
<!-- Creator: CorelDRAW 2017 -->
<svg xmlns="http://www.w3.org/2000/svg" xml:space="preserve" width="25.4mm" height="21.1666mm" version="1.1" style="shape-rendering:geometricPrecision; text-rendering:geometricPrecision; image-rendering:optimizeQuality; fill-rule:evenodd; clip-rule:evenodd"
viewBox="0 0 2540 2117"
 xmlns:xlink="http://www.w3.org/1999/xlink">
 <defs>
  <style type="text/css">
   <![CDATA[
    .fil0 {fill:white}
   ]]>
  </style>
 </defs>
 <g id="Слой_x0020_1">
  <metadata id="CorelCorpID_0Corel-Layer"/>
  <g id="_2248295474480">
   <path class="fil0" d="M2062 390c-18,8 -74,63 -180,175 -85,90 -184,195 -222,234 -37,39 -114,120 -171,180 -271,285 -417,438 -428,446 -6,5 -33,10 -59,12l-46 4 -125 -147c-69,-81 -130,-151 -135,-157 -30,-31 -154,-181 -166,-201 -24,-39 -50,-56 -82,-56 -76,0 -140,63 -138,139 0,44 11,68 50,112 17,20 53,61 80,93 27,31 56,65 66,76 10,11 63,73 118,139 140,165 189,212 248,240 66,31 105,39 178,35 117,-6 178,-40 290,-160 89,-95 162,-172 273,-288 46,-48 146,-154 223,-235 76,-82 147,-157 157,-168 10,-10 40,-43 66,-71 27,-28 77,-81 113,-118 80,-82 89,-99 90,-155 0,-36 -2,-47 -19,-74 -36,-59 -118,-84 -180,-55l0 0 0 0 -1 1z"/>
  </g>
 </g>
</svg>
