<svg width="25" height="25" viewBox="0 0 25 25" fill="none" xmlns="http://www.w3.org/2000/svg">
<path d="M12.5001 12.3468C14.1344 12.3468 15.4595 10.8141 15.4595 8.92336C15.4595 7.0326 15.0245 5.49988 12.5001 5.49988C9.97565 5.49988 9.54053 7.0326 9.54053 8.92336C9.54053 10.8141 10.8656 12.3468 12.5001 12.3468Z" fill="#929AA2"/>
<path d="M18.0835 17.436C18.0287 14.1423 17.5771 13.2038 14.1208 12.6097C14.1208 12.6097 13.6342 13.2002 12.5002 13.2002C11.3662 13.2002 10.8796 12.6097 10.8796 12.6097C7.46102 13.1973 6.98188 14.1219 6.91888 17.329C6.91372 17.5909 6.91132 17.6046 6.9104 17.5742C6.91061 17.6312 6.91086 17.7366 6.91086 17.9203C6.91086 17.9203 7.73373 19.5001 12.5002 19.5001C17.2666 19.5001 18.0896 17.9203 18.0896 17.9203C18.0896 17.8022 18.0897 17.7202 18.0898 17.6643C18.0889 17.6831 18.087 17.6467 18.0835 17.436Z" fill="#929AA2"/>
</svg>
