<svg width="74" height="73" viewBox="0 0 74 73" fill="none" xmlns="http://www.w3.org/2000/svg">
<path d="M37.0626 22.4238C26.6029 22.4238 17.4637 28.0723 12.564 36.4416C17.4637 44.8109 26.6029 50.4593 37.0626 50.4593C47.5224 50.4593 56.6616 44.8109 61.5613 36.4416C56.6616 28.0723 47.5224 22.4238 37.0626 22.4238V22.4238Z" stroke="#00E3E3" stroke-width="3" stroke-linecap="round" stroke-linejoin="round"/>
<path d="M37.0625 44.8453C41.7453 44.8453 45.5414 41.0829 45.5414 36.4416C45.5414 31.8003 41.7453 28.0378 37.0625 28.0378C32.3797 28.0378 28.5835 31.8003 28.5835 36.4416C28.5835 41.0829 32.3797 44.8453 37.0625 44.8453Z" stroke="#00E3E3" stroke-width="3" stroke-linecap="round" stroke-linejoin="round"/>
<path d="M12.564 24.2837V18.222V12.1603H18.6799H24.8307" stroke="#00E3E3" stroke-width="3" stroke-linecap="round" stroke-linejoin="round"/>
<path d="M24.8307 60.6885H18.6799H12.564V54.6268V48.5651" stroke="#00E3E3" stroke-width="3" stroke-linecap="round" stroke-linejoin="round"/>
<path d="M61.5616 48.5651V54.6268V60.6885H55.4457H49.2949" stroke="#00E3E3" stroke-width="3" stroke-linecap="round" stroke-linejoin="round"/>
<path d="M49.2949 12.1603H55.4457H61.5616V18.222V24.2837" stroke="#00E3E3" stroke-width="3" stroke-linecap="round" stroke-linejoin="round"/>
<path d="M37.0625 22.4239V2" stroke="#00E3E3" stroke-width="3" stroke-linecap="round" stroke-linejoin="round"/>
<path d="M37.0625 70.9176V50.4938" stroke="#00E3E3" stroke-width="3" stroke-linecap="round" stroke-linejoin="round"/>
<path d="M12.564 36.4417H2" stroke="#00E3E3" stroke-width="3" stroke-linecap="round" stroke-linejoin="round"/>
<path d="M72.1255 36.4417H61.5615" stroke="#00E3E3" stroke-width="3" stroke-linecap="round" stroke-linejoin="round"/>
</svg>
