<svg width="319" height="319" viewBox="0 0 319 319" fill="none" xmlns="http://www.w3.org/2000/svg">
<g filter="url(#filter0_f_534_133)">
<circle cx="159.5" cy="159.5" r="59.5" fill="#C1FBFF" fill-opacity="0.3"/>
</g>
<g filter="url(#filter1_f_534_133)">
<path d="M139.366 249.467C129.048 239.115 122.642 224.783 122.642 208.972C122.642 193.16 129.048 178.828 139.366 168.476C149.684 158.125 163.971 151.698 179.731 151.698C195.491 151.698 209.778 158.125 220.095 168.476L228.996 159.547C216.354 146.864 198.949 139.072 179.731 139.072C160.512 139.072 143.108 146.921 130.466 159.547C117.823 172.173 110 189.748 110 208.972C110 228.195 117.823 245.713 130.466 258.396C143.108 271.079 160.512 278.928 179.731 278.928V266.302C163.971 266.302 149.684 259.875 139.366 249.524V249.467Z" fill="#00E3E3"/>
<path d="M179.674 255.609C205.348 255.609 226.162 234.729 226.162 208.972C226.162 183.214 205.348 162.334 179.674 162.334C154 162.334 133.187 183.214 133.187 208.972C133.187 234.729 154 255.609 179.674 255.609Z" stroke="#00E3E3" stroke-miterlimit="10"/>
<path d="M120.771 149.878C135.851 134.749 156.714 125.422 179.674 125.422C202.634 125.422 223.497 134.749 238.577 149.878C253.657 165.007 262.954 185.88 262.954 208.972C262.954 232.063 253.657 252.936 238.577 268.065C223.497 283.194 202.691 292.521 179.674 292.521C156.657 292.521 135.851 283.194 120.771 268.065" stroke="#00E3E3" stroke-miterlimit="10"/>
<path d="M263.011 213.977C265.767 213.977 268 211.736 268 208.972C268 206.207 265.767 203.967 263.011 203.967C260.256 203.967 258.022 206.207 258.022 208.972C258.022 211.736 260.256 213.977 263.011 213.977Z" fill="#00E3E3"/>
<path d="M119.751 155.509C122.506 155.509 124.74 153.268 124.74 150.504C124.74 147.74 122.506 145.499 119.751 145.499C116.996 145.499 114.762 147.74 114.762 150.504C114.762 153.268 116.996 155.509 119.751 155.509Z" fill="#00E3E3"/>
<path d="M119.751 273.013C122.506 273.013 124.74 270.772 124.74 268.008C124.74 265.244 122.506 263.003 119.751 263.003C116.996 263.003 114.762 265.244 114.762 268.008C114.762 270.772 116.996 273.013 119.751 273.013Z" fill="#00E3E3"/>
</g>
<path d="M139.366 249.467C129.048 239.115 122.642 224.783 122.642 208.972C122.642 193.16 129.048 178.828 139.366 168.476C149.684 158.125 163.971 151.698 179.731 151.698C195.491 151.698 209.778 158.125 220.095 168.476L228.996 159.547C216.354 146.864 198.949 139.072 179.731 139.072C160.512 139.072 143.108 146.921 130.466 159.547C117.823 172.173 110 189.748 110 208.972C110 228.195 117.823 245.713 130.466 258.396C143.108 271.079 160.512 278.928 179.731 278.928V266.302C163.971 266.302 149.684 259.875 139.366 249.524V249.467Z" fill="#00E3E3"/>
<path d="M179.674 255.609C205.348 255.609 226.162 234.729 226.162 208.972C226.162 183.214 205.348 162.334 179.674 162.334C154 162.334 133.187 183.214 133.187 208.972C133.187 234.729 154 255.609 179.674 255.609Z" stroke="#00E3E3" stroke-miterlimit="10"/>
<path d="M120.771 149.878C135.851 134.749 156.714 125.422 179.674 125.422C202.634 125.422 223.497 134.749 238.577 149.878C253.657 165.007 262.954 185.88 262.954 208.972C262.954 232.063 253.657 252.936 238.577 268.065C223.497 283.194 202.691 292.521 179.674 292.521C156.657 292.521 135.851 283.194 120.771 268.065" stroke="#00E3E3" stroke-miterlimit="10"/>
<path d="M263.011 213.977C265.767 213.977 268 211.736 268 208.972C268 206.207 265.767 203.967 263.011 203.967C260.256 203.967 258.022 206.207 258.022 208.972C258.022 211.736 260.256 213.977 263.011 213.977Z" fill="#00E3E3"/>
<path d="M119.751 155.509C122.506 155.509 124.74 153.268 124.74 150.504C124.74 147.74 122.506 145.499 119.751 145.499C116.996 145.499 114.762 147.74 114.762 150.504C114.762 153.268 116.996 155.509 119.751 155.509Z" fill="#00E3E3"/>
<path d="M119.751 273.013C122.506 273.013 124.74 270.772 124.74 268.008C124.74 265.244 122.506 263.003 119.751 263.003C116.996 263.003 114.762 265.244 114.762 268.008C114.762 270.772 116.996 273.013 119.751 273.013Z" fill="#00E3E3"/>
<defs>
<filter id="filter0_f_534_133" x="0" y="0" width="319" height="319" filterUnits="userSpaceOnUse" color-interpolation-filters="sRGB">
<feFlood flood-opacity="0" result="BackgroundImageFix"/>
<feBlend mode="normal" in="SourceGraphic" in2="BackgroundImageFix" result="shape"/>
<feGaussianBlur stdDeviation="50" result="effect1_foregroundBlur_534_133"/>
</filter>
<filter id="filter1_f_534_133" x="103" y="117" width="172" height="184" filterUnits="userSpaceOnUse" color-interpolation-filters="sRGB">
<feFlood flood-opacity="0" result="BackgroundImageFix"/>
<feBlend mode="normal" in="SourceGraphic" in2="BackgroundImageFix" result="shape"/>
<feGaussianBlur stdDeviation="3.5" result="effect1_foregroundBlur_534_133"/>
</filter>
</defs>
</svg>
