<svg width="205" height="184" viewBox="0 0 172 184" fill="none" xmlns="http://www.w3.org/2000/svg" id="out">
<g  filter="url(#filter0_f_523_132)">
<path style="transform-origin: 45% 50%;" id="center" d="M36.3663 132.467C26.0484 122.115 19.6423 107.783 19.6423 91.9715C19.6423 76.1602 26.0484 61.8277 36.3663 51.4764C46.6842 41.1251 60.9706 34.6982 76.7309 34.6982C92.4912 34.6982 106.778 41.1251 117.095 51.4764L125.996 42.547C113.354 29.8638 95.9494 22.0719 76.7309 22.0719C57.5124 22.0719 40.108 29.9207 27.4657 42.547C14.8235 55.1733 7 72.7477 7 91.9715C7 111.195 14.8235 128.713 27.4657 141.396C40.108 154.079 57.5124 161.928 76.7309 161.928V149.302C60.9706 149.302 46.6842 142.875 36.3663 132.524V132.467Z" fill="#00E3E3"/>
<path  d="M76.6743 138.609C102.348 138.609 123.162 117.729 123.162 91.9715C123.162 66.2143 102.348 45.3339 76.6743 45.3339C51.0001 45.3339 30.187 66.2143 30.187 91.9715C30.187 117.729 51.0001 138.609 76.6743 138.609Z" stroke="#00E3E3" stroke-miterlimit="10"/>
	<g id="out-group" style="transform-origin: 45% 49%;">
	<path d="M17.7715 32.8782C32.8515 17.7494 53.7141 8.42188 76.6742 8.42188C99.6344 8.42188 120.497 17.7494 135.577 32.8782C150.657 48.007 159.954 68.8802 159.954 91.9716C159.954 115.063 150.657 135.936 135.577 151.065C120.497 166.194 99.6911 175.521 76.6742 175.521C53.6574 175.521 32.8515 166.194 17.7715 151.065" stroke="#00E3E3" stroke-miterlimit="10"/>
	<path d="M160.011 96.9766C162.767 96.9766 165 94.7358 165 91.9716C165 89.2074 162.767 86.9666 160.011 86.9666C157.256 86.9666 155.022 89.2074 155.022 91.9716C155.022 94.7358 157.256 96.9766 160.011 96.9766Z" fill="#00E3E3"/>
	<path d="M16.7511 38.5088C19.5064 38.5088 21.74 36.268 21.74 33.5038C21.74 30.7396 19.5064 28.4988 16.7511 28.4988C13.9958 28.4988 11.7622 30.7396 11.7622 33.5038C11.7622 36.268 13.9958 38.5088 16.7511 38.5088Z" fill="#00E3E3"/>
	<path d="M16.7511 156.013C19.5064 156.013 21.74 153.772 21.74 151.008C21.74 148.244 19.5064 146.003 16.7511 146.003C13.9958 146.003 11.7622 148.244 11.7622 151.008C11.7622 153.772 13.9958 156.013 16.7511 156.013Z" fill="#00E3E3"/>
	</g>
</g>
<g>
<path style="transform-origin: 45% 50%;" id="center" d="M36.3663 132.467C26.0484 122.115 19.6423 107.783 19.6423 91.9715C19.6423 76.1602 26.0484 61.8277 36.3663 51.4764C46.6842 41.1251 60.9706 34.6982 76.7309 34.6982C92.4912 34.6982 106.778 41.1251 117.095 51.4764L125.996 42.547C113.354 29.8638 95.9494 22.0719 76.7309 22.0719C57.5124 22.0719 40.108 29.9207 27.4657 42.547C14.8235 55.1733 7 72.7477 7 91.9715C7 111.195 14.8235 128.713 27.4657 141.396C40.108 154.079 57.5124 161.928 76.7309 161.928V149.302C60.9706 149.302 46.6842 142.875 36.3663 132.524V132.467Z" fill="#00E3E3"/>
<path d="M76.6743 138.609C102.348 138.609 123.162 117.729 123.162 91.9715C123.162 66.2143 102.348 45.3339 76.6743 45.3339C51.0001 45.3339 30.187 66.2143 30.187 91.9715C30.187 117.729 51.0001 138.609 76.6743 138.609Z" stroke="#00E3E3" stroke-miterlimit="10"/>
<g id="out-group" style="transform-origin: 45% 49%;">
<path d="M17.7715 32.8782C32.8515 17.7494 53.7141 8.42188 76.6742 8.42188C99.6344 8.42188 120.497 17.7494 135.577 32.8782C150.657 48.007 159.954 68.8802 159.954 91.9716C159.954 115.063 150.657 135.936 135.577 151.065C120.497 166.194 99.6911 175.521 76.6742 175.521C53.6574 175.521 32.8515 166.194 17.7715 151.065" stroke="#00E3E3" stroke-miterlimit="10"/>
<path d="M160.011 96.9766C162.767 96.9766 165 94.7358 165 91.9716C165 89.2074 162.767 86.9666 160.011 86.9666C157.256 86.9666 155.022 89.2074 155.022 91.9716C155.022 94.7358 157.256 96.9766 160.011 96.9766Z" fill="#00E3E3"/>
<path d="M16.7511 38.5088C19.5064 38.5088 21.74 36.268 21.74 33.5038C21.74 30.7396 19.5064 28.4988 16.7511 28.4988C13.9958 28.4988 11.7622 30.7396 11.7622 33.5038C11.7622 36.268 13.9958 38.5088 16.7511 38.5088Z" fill="#00E3E3"/>
<path d="M16.7511 156.013C19.5064 156.013 21.74 153.772 21.74 151.008C21.74 148.244 19.5064 146.003 16.7511 146.003C13.9958 146.003 11.7622 148.244 11.7622 151.008C11.7622 153.772 13.9958 156.013 16.7511 156.013Z" fill="#00E3E3"/>
</g>
</g>
<defs>
<filter id="filter0_f_523_132" x="0" y="0" width="172" height="184" filterUnits="userSpaceOnUse" color-interpolation-filters="sRGB">
<feFlood flood-opacity="0" result="BackgroundImageFix"/>
<feBlend mode="normal" in="SourceGraphic" in2="BackgroundImageFix" result="shape"/>
<feGaussianBlur stdDeviation="3.5" result="effect1_foregroundBlur_523_132"/>
</filter>

 <style>
  @keyframes myAnime {
    0% {
      transform: rotate(0deg);
    }
    100% {
      transform: rotate(360deg);
    }
  }

@keyframes myAnimeBack {
    0% {
      transform: rotate(0deg);
    }
    100% {
      transform: rotate(-360deg);
    }
  }

  #out.addAnimation #out-group {
    animation: myAnime 6s infinite linear;
  }
  #out.addAnimation #center {
    animation: myAnimeBack 6s infinite linear;
  }
  </style>
	<script>
  (function () {
    var myAnimeClick = document.getElementById('out');
	  myAnimeClick.classList.toggle('addAnimation');
	
 }());
		
	</script>
</defs>
</svg>
