<svg width="85" height="71" viewBox="0 0 85 71" fill="none" xmlns="http://www.w3.org/2000/svg">
<path d="M38.2654 54.5823C38.119 55.6434 37.8629 56.5216 37.4238 57.3267C36.6188 58.7171 35.1917 59.7051 32.74 60.5101C29.9956 61.3883 28.7149 63.5838 28.1295 65.5598C27.544 67.5358 27.6172 69.2922 27.6172 69.2922H42.3271" stroke="#00E3E3" stroke-width="3" stroke-linecap="round" stroke-linejoin="round"/>
<path d="M46.3522 54.5823C46.4986 55.6434 46.7547 56.5216 47.1938 57.3267C47.9988 58.7171 49.4259 59.7051 51.8776 60.5101C54.6219 61.3883 55.9027 63.5838 56.4881 65.5598C57.0736 67.5358 57.0004 69.2922 57.0004 69.2922H42.2905" stroke="#00E3E3" stroke-width="3" stroke-linecap="round" stroke-linejoin="round"/>
<path d="M42.6932 39.2504H41.9247C38.853 39.2504 36.3628 41.7405 36.3628 44.8123V49.7888C36.3628 52.8606 38.853 55.3507 41.9247 55.3507H42.6932C45.7649 55.3507 48.2551 52.8606 48.2551 49.7888V44.8123C48.2551 41.7405 45.7649 39.2504 42.6932 39.2504Z" stroke="#00E3E3" stroke-width="3" stroke-linecap="round" stroke-linejoin="round"/>
<path d="M12.6511 17.3319C12.5048 18.3931 12.2486 19.2713 11.8095 20.0763C11.0045 21.4668 9.57742 22.4548 7.12577 23.2598C4.38139 24.138 3.10068 26.3335 2.51521 28.3094C1.92974 30.2854 2.00293 32.0418 2.00293 32.0418H16.7128" stroke="#00E3E3" stroke-width="3" stroke-linecap="round" stroke-linejoin="round"/>
<path d="M20.7746 17.3319C20.9209 18.3931 21.1771 19.2713 21.6162 20.0763C22.4212 21.4668 23.8483 22.4548 26.2999 23.2598C29.0443 24.138 30.325 26.3335 30.9105 28.3094C31.496 30.2854 31.4228 32.0418 31.4228 32.0418H16.7129" stroke="#00E3E3" stroke-width="3" stroke-linecap="round" stroke-linejoin="round"/>
<path d="M17.1155 2.03662H16.3471C13.2753 2.03662 10.7852 4.52679 10.7852 7.59857V12.575C10.7852 15.6468 13.2753 18.137 16.3471 18.137H17.1155C20.1873 18.137 22.6775 15.6468 22.6775 12.575V7.59857C22.6775 4.52679 20.1873 2.03662 17.1155 2.03662Z" stroke="#00E3E3" stroke-width="3" stroke-linecap="round" stroke-linejoin="round"/>
<path d="M71.9665 17.3319C72.1128 18.3931 72.369 19.2713 72.8081 20.0763C73.6131 21.4668 75.0402 22.4548 77.4918 23.2598C80.2362 24.138 81.5169 26.3335 82.1024 28.3094C82.6878 30.2854 82.6147 32.0418 82.6147 32.0418H67.9048" stroke="#00E3E3" stroke-width="3" stroke-linecap="round" stroke-linejoin="round"/>
<path d="M63.843 17.3319C63.6967 18.3931 63.4405 19.2713 63.0014 20.0763C62.1964 21.4668 60.7693 22.4548 58.3177 23.2598C55.5733 24.138 54.2926 26.3335 53.7071 28.3094C53.1216 30.2854 53.1948 32.0418 53.1948 32.0418H67.9047" stroke="#00E3E3" stroke-width="3" stroke-linecap="round" stroke-linejoin="round"/>
<path d="M67.5022 18.1003H68.2706C71.3424 18.1003 73.8325 15.6102 73.8325 12.5384V7.56192C73.8325 4.49014 71.3424 1.99997 68.2706 1.99997H67.5022C64.4304 1.99997 61.9402 4.49014 61.9402 7.56192V12.5384C61.9402 15.6102 64.4304 18.1003 67.5022 18.1003Z" stroke="#00E3E3" stroke-width="3" stroke-linecap="round" stroke-linejoin="round"/>
<path d="M28.1294 12.0994C32.2643 9.57454 37.0944 8.14746 42.2904 8.14746" stroke="#00E3E3" stroke-width="3" stroke-linecap="round" stroke-linejoin="round"/>
<path d="M25.6045 57.1072C20.0425 52.7894 16.1638 46.3859 15.2124 39.0675" stroke="#00E3E3" stroke-width="3" stroke-linecap="round" stroke-linejoin="round"/>
<path d="M56.4877 12.0994C52.3528 9.57454 47.5227 8.14746 42.3267 8.14746" stroke="#00E3E3" stroke-width="3" stroke-linecap="round" stroke-linejoin="round"/>
<path d="M59.0127 57.1072C64.5746 52.7894 68.4534 46.3859 69.4047 39.0675" stroke="#00E3E3" stroke-width="3" stroke-linecap="round" stroke-linejoin="round"/>
</svg>
