<svg width="84" height="84" viewBox="0 0 84 84" fill="none" xmlns="http://www.w3.org/2000/svg">
<path d="M26.5879 18.078L26.3631 18.088L26.3731 18.3128L26.4352 19.7024L26.4453 19.9271L26.67 19.9172L29.4499 19.7936L29.6748 19.7836L29.6647 19.5588L29.6026 18.1692L29.5926 17.9444L29.3678 17.9544L26.5879 18.078Z" fill="#A65E34" stroke="#A65E34" stroke-width="0.45"/>
<path d="M26.7803 22.2523L26.5555 22.2623L26.5655 22.4872L26.6276 23.8772L26.6377 24.102L26.8624 24.092L29.6423 23.9684L29.8671 23.9584L29.8571 23.7335L29.795 22.3435L29.785 22.1187L29.5602 22.1287L26.7803 22.2523Z" fill="#A65E34" stroke="#A65E34" stroke-width="0.45"/>
<mask id="path-3-outside-1_20_345" maskUnits="userSpaceOnUse" x="0" y="-0.000488281" width="84" height="84" fill="black">
<rect fill="white" y="-0.000488281" width="84" height="84"/>
<path d="M81.234 65.7858C81.2514 65.2293 81.634 64.4989 82.0166 63.7859C82.5904 62.7077 83.2513 61.4903 82.9035 60.273C82.5557 59.0557 81.3557 58.3601 80.3123 57.7515C79.6167 57.3515 78.9037 56.9341 78.5907 56.4646C78.2603 55.9603 78.1559 55.0907 78.0516 54.2386C77.8951 52.9691 77.7385 51.6648 76.8169 50.8997C75.8778 50.1171 74.5388 50.2736 73.3562 50.4127C72.5562 50.4997 71.7388 50.604 71.2172 50.3953C70.7824 50.2214 70.3129 49.7345 69.8434 49.2128L82.7644 37.1439C83.0078 36.9178 83.06 36.5526 82.8861 36.2744L76.1039 25.388C75.8953 25.0576 75.4779 24.9706 75.1475 25.1619C75.1127 25.1793 75.0779 25.2141 75.0431 25.2489L64.6263 34.8483L65.461 31.5267L68.0174 29.0052C72.6779 24.3968 74.9562 17.8927 74.1736 11.3882L74.9909 5.97978C75.0431 5.5972 74.7822 5.24938 74.3997 5.17984L46.9234 1.00615C46.5409 0.953978 46.193 1.21483 46.1235 1.59743L45.5844 5.09283C45.4974 5.05805 45.4105 5.02327 45.3061 5.00588L41.4629 3.77117L40.4021 1.42341C40.4021 1.40602 40.4021 1.40602 40.3847 1.38863C40.263 1.14517 40.0021 1.00605 39.7412 1.00605L23.0641 1.75383C22.7858 1.77122 22.5598 1.92774 22.4554 2.18859C22.4554 2.20598 22.4554 2.20598 22.438 2.22337L21.6207 4.64061L17.8992 6.22313C13.0299 8.30998 8.76931 11.5446 5.4652 15.6835L1.15242 21.0745C0.943733 21.3527 0.943733 21.7353 1.1872 21.9788L9.95189 31.3348C10.2127 31.6131 10.6475 31.6305 10.9257 31.3696L13.8473 28.7089L14.6994 48.0303L10.8562 49.4737C8.09105 50.5171 6.43908 53.3518 6.87378 56.2734L7.91719 63.1078C3.37831 66.9162 1.46542 70.916 2.66537 74.0985C3.67402 76.794 6.78688 78.4808 11.4127 78.846C12.0214 78.8981 12.6474 78.9155 13.2908 78.9155C17.3253 78.9155 21.9337 77.9939 26.5247 76.2722C27.8638 75.7679 29.1681 75.2114 30.4201 74.6027C29.2202 76.933 29.7767 79.0547 30.9071 80.4459C32.1244 81.9241 34.1939 82.8805 36.7154 82.8805C38.7327 82.8805 41.0282 82.2718 43.3932 80.811C46.9061 78.6546 50.1754 76.1329 53.1666 73.2983C55.3056 71.2288 56.3838 69.8551 56.4186 69.7854L55.3056 68.9333C55.2708 68.9855 51.045 74.4286 42.6628 79.6109C38.037 82.4804 33.7938 81.7499 31.9852 79.5414C30.594 77.8546 30.9244 75.6111 32.8548 73.5764C33.1156 73.3156 33.3765 73.0547 33.6547 72.8286C34.4373 72.3591 35.1676 71.8722 35.8807 71.3678C38.2109 70.1331 41.8977 68.8985 47.6365 68.342L47.4974 66.9507C44.9932 67.1942 42.089 67.629 39.3587 68.4637C39.4457 68.3767 39.5326 68.3072 39.6022 68.2202C41.1673 66.6204 42.2628 65.0377 42.8541 63.5074L50.9232 63.1422C51.0623 63.4726 51.1319 63.8378 51.1493 64.203C51.1319 64.7595 50.7493 65.4899 50.3667 66.2029C49.7928 67.2811 49.132 68.4985 49.4798 69.7158C49.6015 70.1331 49.8276 70.5157 50.1233 70.8461L51.1493 69.9071C50.9928 69.7506 50.871 69.5593 50.8189 69.3506C50.6276 68.6724 51.1145 67.7681 51.6014 66.8812C52.0536 66.0291 52.5405 65.1596 52.5579 64.2727C52.5753 63.351 52.1405 62.3946 51.7232 61.4902C51.3058 60.5858 50.871 59.6295 51.0797 59.0382C51.2884 58.4468 52.1753 58.0295 53.0448 57.6295C53.9317 57.2296 54.836 56.7948 55.375 56.0644C55.9141 55.3514 56.088 54.3428 56.2619 53.3689C56.4358 52.3776 56.6097 51.3515 57.1314 51.0038C57.601 50.6734 58.5574 50.8995 59.4617 51.0908C60.4355 51.2994 61.4442 51.5255 62.3311 51.2821C63.2354 51.0212 63.9657 50.3082 64.6788 49.6299C65.3571 48.9691 66.0527 48.2909 66.6265 48.3256C67.2526 48.3604 67.9308 49.143 68.6091 49.8908C69.2699 50.6386 69.9307 51.4037 70.7654 51.7342C71.6175 52.0646 72.6088 51.9603 73.5652 51.8385C74.5042 51.7342 75.4955 51.6125 75.9824 52.0125C76.4692 52.4124 76.6084 53.4385 76.7302 54.447C76.8519 55.4383 76.9736 56.4817 77.478 57.2643C77.9649 58.0121 78.8344 58.5164 79.6517 59.0034C80.5213 59.5077 81.4082 60.0294 81.5995 60.6902C81.7907 61.3684 81.3038 62.2727 80.8169 63.1596C80.3647 64.0117 79.8778 64.8812 79.8604 65.7681C79.843 66.6898 80.2778 67.6462 80.6952 68.5506C81.1125 69.455 81.5473 70.4113 81.3386 71.0026C81.1299 71.594 80.243 72.0113 79.3736 72.4113C78.4867 72.8112 77.5823 73.246 77.0433 73.9764C76.5042 74.6894 76.3303 75.698 76.1564 76.6719C75.9825 77.6632 75.8086 78.6893 75.2869 79.037C74.8174 79.3674 73.8609 79.1413 72.9566 78.95C71.9828 78.7414 70.9741 78.5153 70.0872 78.7587C69.1829 79.0196 68.4526 79.7326 67.7395 80.4109C67.0613 81.0717 66.3657 81.75 65.7918 81.7152C65.1657 81.6804 64.4875 80.8978 63.8092 80.15C63.1484 79.4022 62.4876 78.6371 61.6529 78.3066C60.8008 77.9762 59.8095 78.0805 58.8532 78.2023C57.9141 78.3066 56.9228 78.4283 56.4359 78.0284C55.9491 77.6284 55.8099 76.6023 55.6882 75.5938C55.6534 75.3329 55.6186 75.0895 55.5838 74.846L54.21 75.0547C54.2448 75.2981 54.2795 75.5416 54.2969 75.7677C54.4535 77.0372 54.61 78.3415 55.5316 79.1066C56.4707 79.8892 57.8097 79.7327 58.9924 79.5936C59.7923 79.5066 60.6097 79.4023 61.1313 79.611C61.653 79.8196 62.2095 80.4631 62.7487 81.0718C63.6008 82.0456 64.4878 83.0368 65.6876 83.1064H65.8093C66.9223 83.1064 67.8266 82.2543 68.6787 81.4196C69.27 80.8457 69.8786 80.2545 70.4351 80.098C70.9916 79.9415 71.8264 80.1328 72.6263 80.3067C73.8262 80.5675 75.0783 80.8457 76.0522 80.1849C77.0434 79.4893 77.2869 78.1851 77.4956 76.9156C77.6347 76.0983 77.7738 75.2635 78.1216 74.8114C78.452 74.3593 79.1998 74.0115 79.9302 73.6811C81.0084 73.1767 82.2258 72.6202 82.6257 71.4551C83.0082 70.3247 82.4692 69.1248 81.9301 67.9597C81.5823 67.1771 81.2171 66.3772 81.2344 65.7859L81.234 65.7858ZM75.3735 26.8489L81.4079 36.5353L78.7819 38.9874L72.0868 29.8749L75.3735 26.8489ZM72.9042 10.6057L67.4089 9.77092L68.035 5.64939L73.5302 6.48412L72.9042 10.6057ZM53.6528 7.66675L54.2789 3.54521L59.7741 4.37995L59.1481 8.50149L53.6528 7.66675ZM61.1654 4.58871L66.6607 5.42345L66.0346 9.54499L60.5394 8.71025L61.1654 4.58871ZM47.4097 2.50187L52.9049 3.33661L52.2789 7.45814L50.453 7.1799C49.3052 6.57124 48.14 6.03213 46.9228 5.56257L47.4097 2.50187ZM21.9845 7.78854L23.3931 3.75398L30.8361 11.7013L29.0623 13.0056C28.3319 13.5447 27.3407 13.5447 26.5929 13.0056L22.7149 10.171C21.9845 9.63188 21.6714 8.65802 21.9845 7.78856L21.9845 7.78854ZM31.8449 10.7275L28.5407 7.19723C30.5233 6.31032 32.7666 6.22337 34.8186 6.91898L31.8449 10.7275ZM39.6357 3.04087L41.3921 6.93631C41.7747 7.77105 41.566 8.76224 40.8704 9.37088L37.2533 12.5359C36.575 13.1446 35.5838 13.2315 34.8012 12.7446L32.9231 11.6142L39.6357 3.04087ZM38.314 2.46699L35.7229 5.78861C33.0622 4.74518 30.0883 4.86691 27.5495 6.15381L24.6627 3.07577L38.314 2.46699ZM10.4896 29.875L2.59448 21.458L5.41174 17.9278L13.2026 27.4054L10.4896 29.875ZM11.3417 50.7784L21.1324 47.1091C23.2888 46.3091 25.7061 47.1091 26.9582 49.0568L32.9578 58.465C30.0884 60.8649 26.28 63.0212 22.1236 64.5864C17.9673 66.1516 13.672 67.0385 9.95053 67.1254L8.26373 56.0999C7.91592 53.787 9.2028 51.5958 11.3417 50.7784ZM35.0799 61.7864C32.1584 64.4125 28.089 66.7775 23.585 68.4643C19.0809 70.1512 14.4726 71.0555 10.5423 71.0034L10.1423 68.4818C14.0204 68.3775 18.3157 67.4732 22.5937 65.8558C26.8891 64.2385 30.6976 62.0995 33.6886 59.6301L35.0799 61.7864ZM38.5928 67.2817C35.6191 70.3251 31.1672 73.0552 26.037 74.9856C20.9068 76.916 15.7593 77.7854 11.5162 77.4725C7.4643 77.1595 4.78616 75.7857 3.96875 73.6292C3.06446 71.1947 4.62958 67.9425 8.17724 64.7602L9.25543 71.8206C9.3076 72.151 9.58584 72.3945 9.91625 72.4119C10.2119 72.4293 10.5249 72.4293 10.8379 72.4293C14.8725 72.4293 19.5331 71.5076 24.0894 69.786C28.9934 67.9425 33.3932 65.334 36.4712 62.4298C36.7147 62.2037 36.7669 61.8385 36.5756 61.5429L32.7323 55.5258C37.4973 55.5779 40.8187 57.004 41.7404 59.4385C42.5404 61.5775 41.4274 64.3773 38.5928 67.2816L38.5928 67.2817ZM49.7226 58.5691C49.3574 59.6126 49.8095 60.7255 50.2965 61.8038L43.2361 62.1168C43.4621 61.056 43.3926 59.943 43.01 58.917C41.8101 55.7172 37.7407 53.9782 31.8106 54.1172L28.0891 48.2913C26.4893 45.8045 23.3763 44.7611 20.6113 45.8045L16.0376 47.5261L15.1855 27.4924L18.9591 24.0491L18.0201 23.0231L14.229 26.4664L6.29899 16.8321L6.52507 16.5364C9.69006 12.5888 13.7767 9.47597 18.4199 7.49343L20.9763 6.39784L20.6459 7.31953C20.1415 8.76293 20.6285 10.3802 21.8806 11.2846L25.7933 14.1367C27.0106 15.041 28.6801 15.0236 29.8973 14.1367L31.2538 13.1455L31.7581 24.3623L33.1493 24.2927L32.645 13.0759L34.0884 13.9454C35.3753 14.728 37.0448 14.5889 38.1751 13.5802L41.7922 10.4152C42.9574 9.40656 43.3052 7.75455 42.6618 6.36332L42.2618 5.47641L44.9051 6.32855C49.7049 7.89369 54.0524 10.624 57.5652 14.2759L57.8261 14.5541L50.783 24.8666L46.7136 21.771L45.8789 22.884L49.9483 25.9795L51.3221 56.9348C50.6091 57.3174 49.983 57.8217 49.7223 58.5694L49.7226 58.5691ZM61.9132 18.8325L54.8006 27.9103L51.8791 25.6843L58.8003 15.5631L61.9132 18.8325ZM63.374 19.215C63.5826 18.9368 63.5653 18.5542 63.3218 18.3107L62.5392 17.476L66.2434 18.0325L66.4521 16.6587L60.9741 15.8239L59.3916 14.1718L68.6085 15.563L66.1043 23.8582L60.8698 25.5625L59.27 24.4321L63.374 19.215ZM56.2961 49.8396C55.3048 50.5352 55.0614 51.8394 54.8527 53.1089C54.7136 53.9262 54.5744 54.761 54.2266 55.213C53.931 55.613 53.3049 55.9261 52.6615 56.2391L51.3572 27.0408L54.5049 29.4232C54.8005 29.6493 55.2353 29.5971 55.4787 29.3014L58.4176 25.5451L60.3653 26.919C60.5393 27.0407 60.7653 27.0755 60.974 27.0059L66.8868 25.093C67.0955 25.0234 67.2693 24.8496 67.3389 24.6235L70.1735 15.1979C70.2779 14.8327 70.0692 14.4502 69.704 14.3284C69.6692 14.311 69.6344 14.311 69.5996 14.311L57.7743 12.5198C56.47 11.2502 55.044 10.0852 53.531 9.04168L72.8347 11.9806C73.426 17.9281 71.287 23.8234 67.0438 28.0139L64.3483 30.6572C64.2614 30.7442 64.1918 30.8659 64.157 30.9877L59.479 49.6476C58.366 49.4215 57.2009 49.2302 56.2965 49.8389L56.2961 49.8396ZM66.6607 46.918C65.4956 46.8484 64.5739 47.7527 63.6697 48.6048C63.0784 49.1787 62.4698 49.7699 61.9133 49.9264C61.5655 49.996 61.2003 50.0134 60.8525 49.9438L64.0174 37.3185L71.0432 30.8319L77.7559 39.9443L68.9217 48.2047C68.2782 47.5265 67.5653 46.97 66.6609 46.9178L66.6607 46.918Z"/>
</mask>
<path d="M81.234 65.7858C81.2514 65.2293 81.634 64.4989 82.0166 63.7859C82.5904 62.7077 83.2513 61.4903 82.9035 60.273C82.5557 59.0557 81.3557 58.3601 80.3123 57.7515C79.6167 57.3515 78.9037 56.9341 78.5907 56.4646C78.2603 55.9603 78.1559 55.0907 78.0516 54.2386C77.8951 52.9691 77.7385 51.6648 76.8169 50.8997C75.8778 50.1171 74.5388 50.2736 73.3562 50.4127C72.5562 50.4997 71.7388 50.604 71.2172 50.3953C70.7824 50.2214 70.3129 49.7345 69.8434 49.2128L82.7644 37.1439C83.0078 36.9178 83.06 36.5526 82.8861 36.2744L76.1039 25.388C75.8953 25.0576 75.4779 24.9706 75.1475 25.1619C75.1127 25.1793 75.0779 25.2141 75.0431 25.2489L64.6263 34.8483L65.461 31.5267L68.0174 29.0052C72.6779 24.3968 74.9562 17.8927 74.1736 11.3882L74.9909 5.97978C75.0431 5.5972 74.7822 5.24938 74.3997 5.17984L46.9234 1.00615C46.5409 0.953978 46.193 1.21483 46.1235 1.59743L45.5844 5.09283C45.4974 5.05805 45.4105 5.02327 45.3061 5.00588L41.4629 3.77117L40.4021 1.42341C40.4021 1.40602 40.4021 1.40602 40.3847 1.38863C40.263 1.14517 40.0021 1.00605 39.7412 1.00605L23.0641 1.75383C22.7858 1.77122 22.5598 1.92774 22.4554 2.18859C22.4554 2.20598 22.4554 2.20598 22.438 2.22337L21.6207 4.64061L17.8992 6.22313C13.0299 8.30998 8.76931 11.5446 5.4652 15.6835L1.15242 21.0745C0.943733 21.3527 0.943733 21.7353 1.1872 21.9788L9.95189 31.3348C10.2127 31.6131 10.6475 31.6305 10.9257 31.3696L13.8473 28.7089L14.6994 48.0303L10.8562 49.4737C8.09105 50.5171 6.43908 53.3518 6.87378 56.2734L7.91719 63.1078C3.37831 66.9162 1.46542 70.916 2.66537 74.0985C3.67402 76.794 6.78688 78.4808 11.4127 78.846C12.0214 78.8981 12.6474 78.9155 13.2908 78.9155C17.3253 78.9155 21.9337 77.9939 26.5247 76.2722C27.8638 75.7679 29.1681 75.2114 30.4201 74.6027C29.2202 76.933 29.7767 79.0547 30.9071 80.4459C32.1244 81.9241 34.1939 82.8805 36.7154 82.8805C38.7327 82.8805 41.0282 82.2718 43.3932 80.811C46.9061 78.6546 50.1754 76.1329 53.1666 73.2983C55.3056 71.2288 56.3838 69.8551 56.4186 69.7854L55.3056 68.9333C55.2708 68.9855 51.045 74.4286 42.6628 79.6109C38.037 82.4804 33.7938 81.7499 31.9852 79.5414C30.594 77.8546 30.9244 75.6111 32.8548 73.5764C33.1156 73.3156 33.3765 73.0547 33.6547 72.8286C34.4373 72.3591 35.1676 71.8722 35.8807 71.3678C38.2109 70.1331 41.8977 68.8985 47.6365 68.342L47.4974 66.9507C44.9932 67.1942 42.089 67.629 39.3587 68.4637C39.4457 68.3767 39.5326 68.3072 39.6022 68.2202C41.1673 66.6204 42.2628 65.0377 42.8541 63.5074L50.9232 63.1422C51.0623 63.4726 51.1319 63.8378 51.1493 64.203C51.1319 64.7595 50.7493 65.4899 50.3667 66.2029C49.7928 67.2811 49.132 68.4985 49.4798 69.7158C49.6015 70.1331 49.8276 70.5157 50.1233 70.8461L51.1493 69.9071C50.9928 69.7506 50.871 69.5593 50.8189 69.3506C50.6276 68.6724 51.1145 67.7681 51.6014 66.8812C52.0536 66.0291 52.5405 65.1596 52.5579 64.2727C52.5753 63.351 52.1405 62.3946 51.7232 61.4902C51.3058 60.5858 50.871 59.6295 51.0797 59.0382C51.2884 58.4468 52.1753 58.0295 53.0448 57.6295C53.9317 57.2296 54.836 56.7948 55.375 56.0644C55.9141 55.3514 56.088 54.3428 56.2619 53.3689C56.4358 52.3776 56.6097 51.3515 57.1314 51.0038C57.601 50.6734 58.5574 50.8995 59.4617 51.0908C60.4355 51.2994 61.4442 51.5255 62.3311 51.2821C63.2354 51.0212 63.9657 50.3082 64.6788 49.6299C65.3571 48.9691 66.0527 48.2909 66.6265 48.3256C67.2526 48.3604 67.9308 49.143 68.6091 49.8908C69.2699 50.6386 69.9307 51.4037 70.7654 51.7342C71.6175 52.0646 72.6088 51.9603 73.5652 51.8385C74.5042 51.7342 75.4955 51.6125 75.9824 52.0125C76.4692 52.4124 76.6084 53.4385 76.7302 54.447C76.8519 55.4383 76.9736 56.4817 77.478 57.2643C77.9649 58.0121 78.8344 58.5164 79.6517 59.0034C80.5213 59.5077 81.4082 60.0294 81.5995 60.6902C81.7907 61.3684 81.3038 62.2727 80.8169 63.1596C80.3647 64.0117 79.8778 64.8812 79.8604 65.7681C79.843 66.6898 80.2778 67.6462 80.6952 68.5506C81.1125 69.455 81.5473 70.4113 81.3386 71.0026C81.1299 71.594 80.243 72.0113 79.3736 72.4113C78.4867 72.8112 77.5823 73.246 77.0433 73.9764C76.5042 74.6894 76.3303 75.698 76.1564 76.6719C75.9825 77.6632 75.8086 78.6893 75.2869 79.037C74.8174 79.3674 73.8609 79.1413 72.9566 78.95C71.9828 78.7414 70.9741 78.5153 70.0872 78.7587C69.1829 79.0196 68.4526 79.7326 67.7395 80.4109C67.0613 81.0717 66.3657 81.75 65.7918 81.7152C65.1657 81.6804 64.4875 80.8978 63.8092 80.15C63.1484 79.4022 62.4876 78.6371 61.6529 78.3066C60.8008 77.9762 59.8095 78.0805 58.8532 78.2023C57.9141 78.3066 56.9228 78.4283 56.4359 78.0284C55.9491 77.6284 55.8099 76.6023 55.6882 75.5938C55.6534 75.3329 55.6186 75.0895 55.5838 74.846L54.21 75.0547C54.2448 75.2981 54.2795 75.5416 54.2969 75.7677C54.4535 77.0372 54.61 78.3415 55.5316 79.1066C56.4707 79.8892 57.8097 79.7327 58.9924 79.5936C59.7923 79.5066 60.6097 79.4023 61.1313 79.611C61.653 79.8196 62.2095 80.4631 62.7487 81.0718C63.6008 82.0456 64.4878 83.0368 65.6876 83.1064H65.8093C66.9223 83.1064 67.8266 82.2543 68.6787 81.4196C69.27 80.8457 69.8786 80.2545 70.4351 80.098C70.9916 79.9415 71.8264 80.1328 72.6263 80.3067C73.8262 80.5675 75.0783 80.8457 76.0522 80.1849C77.0434 79.4893 77.2869 78.1851 77.4956 76.9156C77.6347 76.0983 77.7738 75.2635 78.1216 74.8114C78.452 74.3593 79.1998 74.0115 79.9302 73.6811C81.0084 73.1767 82.2258 72.6202 82.6257 71.4551C83.0082 70.3247 82.4692 69.1248 81.9301 67.9597C81.5823 67.1771 81.2171 66.3772 81.2344 65.7859L81.234 65.7858ZM75.3735 26.8489L81.4079 36.5353L78.7819 38.9874L72.0868 29.8749L75.3735 26.8489ZM72.9042 10.6057L67.4089 9.77092L68.035 5.64939L73.5302 6.48412L72.9042 10.6057ZM53.6528 7.66675L54.2789 3.54521L59.7741 4.37995L59.1481 8.50149L53.6528 7.66675ZM61.1654 4.58871L66.6607 5.42345L66.0346 9.54499L60.5394 8.71025L61.1654 4.58871ZM47.4097 2.50187L52.9049 3.33661L52.2789 7.45814L50.453 7.1799C49.3052 6.57124 48.14 6.03213 46.9228 5.56257L47.4097 2.50187ZM21.9845 7.78854L23.3931 3.75398L30.8361 11.7013L29.0623 13.0056C28.3319 13.5447 27.3407 13.5447 26.5929 13.0056L22.7149 10.171C21.9845 9.63188 21.6714 8.65802 21.9845 7.78856L21.9845 7.78854ZM31.8449 10.7275L28.5407 7.19723C30.5233 6.31032 32.7666 6.22337 34.8186 6.91898L31.8449 10.7275ZM39.6357 3.04087L41.3921 6.93631C41.7747 7.77105 41.566 8.76224 40.8704 9.37088L37.2533 12.5359C36.575 13.1446 35.5838 13.2315 34.8012 12.7446L32.9231 11.6142L39.6357 3.04087ZM38.314 2.46699L35.7229 5.78861C33.0622 4.74518 30.0883 4.86691 27.5495 6.15381L24.6627 3.07577L38.314 2.46699ZM10.4896 29.875L2.59448 21.458L5.41174 17.9278L13.2026 27.4054L10.4896 29.875ZM11.3417 50.7784L21.1324 47.1091C23.2888 46.3091 25.7061 47.1091 26.9582 49.0568L32.9578 58.465C30.0884 60.8649 26.28 63.0212 22.1236 64.5864C17.9673 66.1516 13.672 67.0385 9.95053 67.1254L8.26373 56.0999C7.91592 53.787 9.2028 51.5958 11.3417 50.7784ZM35.0799 61.7864C32.1584 64.4125 28.089 66.7775 23.585 68.4643C19.0809 70.1512 14.4726 71.0555 10.5423 71.0034L10.1423 68.4818C14.0204 68.3775 18.3157 67.4732 22.5937 65.8558C26.8891 64.2385 30.6976 62.0995 33.6886 59.6301L35.0799 61.7864ZM38.5928 67.2817C35.6191 70.3251 31.1672 73.0552 26.037 74.9856C20.9068 76.916 15.7593 77.7854 11.5162 77.4725C7.4643 77.1595 4.78616 75.7857 3.96875 73.6292C3.06446 71.1947 4.62958 67.9425 8.17724 64.7602L9.25543 71.8206C9.3076 72.151 9.58584 72.3945 9.91625 72.4119C10.2119 72.4293 10.5249 72.4293 10.8379 72.4293C14.8725 72.4293 19.5331 71.5076 24.0894 69.786C28.9934 67.9425 33.3932 65.334 36.4712 62.4298C36.7147 62.2037 36.7669 61.8385 36.5756 61.5429L32.7323 55.5258C37.4973 55.5779 40.8187 57.004 41.7404 59.4385C42.5404 61.5775 41.4274 64.3773 38.5928 67.2816L38.5928 67.2817ZM49.7226 58.5691C49.3574 59.6126 49.8095 60.7255 50.2965 61.8038L43.2361 62.1168C43.4621 61.056 43.3926 59.943 43.01 58.917C41.8101 55.7172 37.7407 53.9782 31.8106 54.1172L28.0891 48.2913C26.4893 45.8045 23.3763 44.7611 20.6113 45.8045L16.0376 47.5261L15.1855 27.4924L18.9591 24.0491L18.0201 23.0231L14.229 26.4664L6.29899 16.8321L6.52507 16.5364C9.69006 12.5888 13.7767 9.47597 18.4199 7.49343L20.9763 6.39784L20.6459 7.31953C20.1415 8.76293 20.6285 10.3802 21.8806 11.2846L25.7933 14.1367C27.0106 15.041 28.6801 15.0236 29.8973 14.1367L31.2538 13.1455L31.7581 24.3623L33.1493 24.2927L32.645 13.0759L34.0884 13.9454C35.3753 14.728 37.0448 14.5889 38.1751 13.5802L41.7922 10.4152C42.9574 9.40656 43.3052 7.75455 42.6618 6.36332L42.2618 5.47641L44.9051 6.32855C49.7049 7.89369 54.0524 10.624 57.5652 14.2759L57.8261 14.5541L50.783 24.8666L46.7136 21.771L45.8789 22.884L49.9483 25.9795L51.3221 56.9348C50.6091 57.3174 49.983 57.8217 49.7223 58.5694L49.7226 58.5691ZM61.9132 18.8325L54.8006 27.9103L51.8791 25.6843L58.8003 15.5631L61.9132 18.8325ZM63.374 19.215C63.5826 18.9368 63.5653 18.5542 63.3218 18.3107L62.5392 17.476L66.2434 18.0325L66.4521 16.6587L60.9741 15.8239L59.3916 14.1718L68.6085 15.563L66.1043 23.8582L60.8698 25.5625L59.27 24.4321L63.374 19.215ZM56.2961 49.8396C55.3048 50.5352 55.0614 51.8394 54.8527 53.1089C54.7136 53.9262 54.5744 54.761 54.2266 55.213C53.931 55.613 53.3049 55.9261 52.6615 56.2391L51.3572 27.0408L54.5049 29.4232C54.8005 29.6493 55.2353 29.5971 55.4787 29.3014L58.4176 25.5451L60.3653 26.919C60.5393 27.0407 60.7653 27.0755 60.974 27.0059L66.8868 25.093C67.0955 25.0234 67.2693 24.8496 67.3389 24.6235L70.1735 15.1979C70.2779 14.8327 70.0692 14.4502 69.704 14.3284C69.6692 14.311 69.6344 14.311 69.5996 14.311L57.7743 12.5198C56.47 11.2502 55.044 10.0852 53.531 9.04168L72.8347 11.9806C73.426 17.9281 71.287 23.8234 67.0438 28.0139L64.3483 30.6572C64.2614 30.7442 64.1918 30.8659 64.157 30.9877L59.479 49.6476C58.366 49.4215 57.2009 49.2302 56.2965 49.8389L56.2961 49.8396ZM66.6607 46.918C65.4956 46.8484 64.5739 47.7527 63.6697 48.6048C63.0784 49.1787 62.4698 49.7699 61.9133 49.9264C61.5655 49.996 61.2003 50.0134 60.8525 49.9438L64.0174 37.3185L71.0432 30.8319L77.7559 39.9443L68.9217 48.2047C68.2782 47.5265 67.5653 46.97 66.6609 46.9178L66.6607 46.918Z" fill="#A65E34"/>
<path d="M81.234 65.7858C81.2514 65.2293 81.634 64.4989 82.0166 63.7859C82.5904 62.7077 83.2513 61.4903 82.9035 60.273C82.5557 59.0557 81.3557 58.3601 80.3123 57.7515C79.6167 57.3515 78.9037 56.9341 78.5907 56.4646C78.2603 55.9603 78.1559 55.0907 78.0516 54.2386C77.8951 52.9691 77.7385 51.6648 76.8169 50.8997C75.8778 50.1171 74.5388 50.2736 73.3562 50.4127C72.5562 50.4997 71.7388 50.604 71.2172 50.3953C70.7824 50.2214 70.3129 49.7345 69.8434 49.2128L82.7644 37.1439C83.0078 36.9178 83.06 36.5526 82.8861 36.2744L76.1039 25.388C75.8953 25.0576 75.4779 24.9706 75.1475 25.1619C75.1127 25.1793 75.0779 25.2141 75.0431 25.2489L64.6263 34.8483L65.461 31.5267L68.0174 29.0052C72.6779 24.3968 74.9562 17.8927 74.1736 11.3882L74.9909 5.97978C75.0431 5.5972 74.7822 5.24938 74.3997 5.17984L46.9234 1.00615C46.5409 0.953978 46.193 1.21483 46.1235 1.59743L45.5844 5.09283C45.4974 5.05805 45.4105 5.02327 45.3061 5.00588L41.4629 3.77117L40.4021 1.42341C40.4021 1.40602 40.4021 1.40602 40.3847 1.38863C40.263 1.14517 40.0021 1.00605 39.7412 1.00605L23.0641 1.75383C22.7858 1.77122 22.5598 1.92774 22.4554 2.18859C22.4554 2.20598 22.4554 2.20598 22.438 2.22337L21.6207 4.64061L17.8992 6.22313C13.0299 8.30998 8.76931 11.5446 5.4652 15.6835L1.15242 21.0745C0.943733 21.3527 0.943733 21.7353 1.1872 21.9788L9.95189 31.3348C10.2127 31.6131 10.6475 31.6305 10.9257 31.3696L13.8473 28.7089L14.6994 48.0303L10.8562 49.4737C8.09105 50.5171 6.43908 53.3518 6.87378 56.2734L7.91719 63.1078C3.37831 66.9162 1.46542 70.916 2.66537 74.0985C3.67402 76.794 6.78688 78.4808 11.4127 78.846C12.0214 78.8981 12.6474 78.9155 13.2908 78.9155C17.3253 78.9155 21.9337 77.9939 26.5247 76.2722C27.8638 75.7679 29.1681 75.2114 30.4201 74.6027C29.2202 76.933 29.7767 79.0547 30.9071 80.4459C32.1244 81.9241 34.1939 82.8805 36.7154 82.8805C38.7327 82.8805 41.0282 82.2718 43.3932 80.811C46.9061 78.6546 50.1754 76.1329 53.1666 73.2983C55.3056 71.2288 56.3838 69.8551 56.4186 69.7854L55.3056 68.9333C55.2708 68.9855 51.045 74.4286 42.6628 79.6109C38.037 82.4804 33.7938 81.7499 31.9852 79.5414C30.594 77.8546 30.9244 75.6111 32.8548 73.5764C33.1156 73.3156 33.3765 73.0547 33.6547 72.8286C34.4373 72.3591 35.1676 71.8722 35.8807 71.3678C38.2109 70.1331 41.8977 68.8985 47.6365 68.342L47.4974 66.9507C44.9932 67.1942 42.089 67.629 39.3587 68.4637C39.4457 68.3767 39.5326 68.3072 39.6022 68.2202C41.1673 66.6204 42.2628 65.0377 42.8541 63.5074L50.9232 63.1422C51.0623 63.4726 51.1319 63.8378 51.1493 64.203C51.1319 64.7595 50.7493 65.4899 50.3667 66.2029C49.7928 67.2811 49.132 68.4985 49.4798 69.7158C49.6015 70.1331 49.8276 70.5157 50.1233 70.8461L51.1493 69.9071C50.9928 69.7506 50.871 69.5593 50.8189 69.3506C50.6276 68.6724 51.1145 67.7681 51.6014 66.8812C52.0536 66.0291 52.5405 65.1596 52.5579 64.2727C52.5753 63.351 52.1405 62.3946 51.7232 61.4902C51.3058 60.5858 50.871 59.6295 51.0797 59.0382C51.2884 58.4468 52.1753 58.0295 53.0448 57.6295C53.9317 57.2296 54.836 56.7948 55.375 56.0644C55.9141 55.3514 56.088 54.3428 56.2619 53.3689C56.4358 52.3776 56.6097 51.3515 57.1314 51.0038C57.601 50.6734 58.5574 50.8995 59.4617 51.0908C60.4355 51.2994 61.4442 51.5255 62.3311 51.2821C63.2354 51.0212 63.9657 50.3082 64.6788 49.6299C65.3571 48.9691 66.0527 48.2909 66.6265 48.3256C67.2526 48.3604 67.9308 49.143 68.6091 49.8908C69.2699 50.6386 69.9307 51.4037 70.7654 51.7342C71.6175 52.0646 72.6088 51.9603 73.5652 51.8385C74.5042 51.7342 75.4955 51.6125 75.9824 52.0125C76.4692 52.4124 76.6084 53.4385 76.7302 54.447C76.8519 55.4383 76.9736 56.4817 77.478 57.2643C77.9649 58.0121 78.8344 58.5164 79.6517 59.0034C80.5213 59.5077 81.4082 60.0294 81.5995 60.6902C81.7907 61.3684 81.3038 62.2727 80.8169 63.1596C80.3647 64.0117 79.8778 64.8812 79.8604 65.7681C79.843 66.6898 80.2778 67.6462 80.6952 68.5506C81.1125 69.455 81.5473 70.4113 81.3386 71.0026C81.1299 71.594 80.243 72.0113 79.3736 72.4113C78.4867 72.8112 77.5823 73.246 77.0433 73.9764C76.5042 74.6894 76.3303 75.698 76.1564 76.6719C75.9825 77.6632 75.8086 78.6893 75.2869 79.037C74.8174 79.3674 73.8609 79.1413 72.9566 78.95C71.9828 78.7414 70.9741 78.5153 70.0872 78.7587C69.1829 79.0196 68.4526 79.7326 67.7395 80.4109C67.0613 81.0717 66.3657 81.75 65.7918 81.7152C65.1657 81.6804 64.4875 80.8978 63.8092 80.15C63.1484 79.4022 62.4876 78.6371 61.6529 78.3066C60.8008 77.9762 59.8095 78.0805 58.8532 78.2023C57.9141 78.3066 56.9228 78.4283 56.4359 78.0284C55.9491 77.6284 55.8099 76.6023 55.6882 75.5938C55.6534 75.3329 55.6186 75.0895 55.5838 74.846L54.21 75.0547C54.2448 75.2981 54.2795 75.5416 54.2969 75.7677C54.4535 77.0372 54.61 78.3415 55.5316 79.1066C56.4707 79.8892 57.8097 79.7327 58.9924 79.5936C59.7923 79.5066 60.6097 79.4023 61.1313 79.611C61.653 79.8196 62.2095 80.4631 62.7487 81.0718C63.6008 82.0456 64.4878 83.0368 65.6876 83.1064H65.8093C66.9223 83.1064 67.8266 82.2543 68.6787 81.4196C69.27 80.8457 69.8786 80.2545 70.4351 80.098C70.9916 79.9415 71.8264 80.1328 72.6263 80.3067C73.8262 80.5675 75.0783 80.8457 76.0522 80.1849C77.0434 79.4893 77.2869 78.1851 77.4956 76.9156C77.6347 76.0983 77.7738 75.2635 78.1216 74.8114C78.452 74.3593 79.1998 74.0115 79.9302 73.6811C81.0084 73.1767 82.2258 72.6202 82.6257 71.4551C83.0082 70.3247 82.4692 69.1248 81.9301 67.9597C81.5823 67.1771 81.2171 66.3772 81.2344 65.7859L81.234 65.7858ZM75.3735 26.8489L81.4079 36.5353L78.7819 38.9874L72.0868 29.8749L75.3735 26.8489ZM72.9042 10.6057L67.4089 9.77092L68.035 5.64939L73.5302 6.48412L72.9042 10.6057ZM53.6528 7.66675L54.2789 3.54521L59.7741 4.37995L59.1481 8.50149L53.6528 7.66675ZM61.1654 4.58871L66.6607 5.42345L66.0346 9.54499L60.5394 8.71025L61.1654 4.58871ZM47.4097 2.50187L52.9049 3.33661L52.2789 7.45814L50.453 7.1799C49.3052 6.57124 48.14 6.03213 46.9228 5.56257L47.4097 2.50187ZM21.9845 7.78854L23.3931 3.75398L30.8361 11.7013L29.0623 13.0056C28.3319 13.5447 27.3407 13.5447 26.5929 13.0056L22.7149 10.171C21.9845 9.63188 21.6714 8.65802 21.9845 7.78856L21.9845 7.78854ZM31.8449 10.7275L28.5407 7.19723C30.5233 6.31032 32.7666 6.22337 34.8186 6.91898L31.8449 10.7275ZM39.6357 3.04087L41.3921 6.93631C41.7747 7.77105 41.566 8.76224 40.8704 9.37088L37.2533 12.5359C36.575 13.1446 35.5838 13.2315 34.8012 12.7446L32.9231 11.6142L39.6357 3.04087ZM38.314 2.46699L35.7229 5.78861C33.0622 4.74518 30.0883 4.86691 27.5495 6.15381L24.6627 3.07577L38.314 2.46699ZM10.4896 29.875L2.59448 21.458L5.41174 17.9278L13.2026 27.4054L10.4896 29.875ZM11.3417 50.7784L21.1324 47.1091C23.2888 46.3091 25.7061 47.1091 26.9582 49.0568L32.9578 58.465C30.0884 60.8649 26.28 63.0212 22.1236 64.5864C17.9673 66.1516 13.672 67.0385 9.95053 67.1254L8.26373 56.0999C7.91592 53.787 9.2028 51.5958 11.3417 50.7784ZM35.0799 61.7864C32.1584 64.4125 28.089 66.7775 23.585 68.4643C19.0809 70.1512 14.4726 71.0555 10.5423 71.0034L10.1423 68.4818C14.0204 68.3775 18.3157 67.4732 22.5937 65.8558C26.8891 64.2385 30.6976 62.0995 33.6886 59.6301L35.0799 61.7864ZM38.5928 67.2817C35.6191 70.3251 31.1672 73.0552 26.037 74.9856C20.9068 76.916 15.7593 77.7854 11.5162 77.4725C7.4643 77.1595 4.78616 75.7857 3.96875 73.6292C3.06446 71.1947 4.62958 67.9425 8.17724 64.7602L9.25543 71.8206C9.3076 72.151 9.58584 72.3945 9.91625 72.4119C10.2119 72.4293 10.5249 72.4293 10.8379 72.4293C14.8725 72.4293 19.5331 71.5076 24.0894 69.786C28.9934 67.9425 33.3932 65.334 36.4712 62.4298C36.7147 62.2037 36.7669 61.8385 36.5756 61.5429L32.7323 55.5258C37.4973 55.5779 40.8187 57.004 41.7404 59.4385C42.5404 61.5775 41.4274 64.3773 38.5928 67.2816L38.5928 67.2817ZM49.7226 58.5691C49.3574 59.6126 49.8095 60.7255 50.2965 61.8038L43.2361 62.1168C43.4621 61.056 43.3926 59.943 43.01 58.917C41.8101 55.7172 37.7407 53.9782 31.8106 54.1172L28.0891 48.2913C26.4893 45.8045 23.3763 44.7611 20.6113 45.8045L16.0376 47.5261L15.1855 27.4924L18.9591 24.0491L18.0201 23.0231L14.229 26.4664L6.29899 16.8321L6.52507 16.5364C9.69006 12.5888 13.7767 9.47597 18.4199 7.49343L20.9763 6.39784L20.6459 7.31953C20.1415 8.76293 20.6285 10.3802 21.8806 11.2846L25.7933 14.1367C27.0106 15.041 28.6801 15.0236 29.8973 14.1367L31.2538 13.1455L31.7581 24.3623L33.1493 24.2927L32.645 13.0759L34.0884 13.9454C35.3753 14.728 37.0448 14.5889 38.1751 13.5802L41.7922 10.4152C42.9574 9.40656 43.3052 7.75455 42.6618 6.36332L42.2618 5.47641L44.9051 6.32855C49.7049 7.89369 54.0524 10.624 57.5652 14.2759L57.8261 14.5541L50.783 24.8666L46.7136 21.771L45.8789 22.884L49.9483 25.9795L51.3221 56.9348C50.6091 57.3174 49.983 57.8217 49.7223 58.5694L49.7226 58.5691ZM61.9132 18.8325L54.8006 27.9103L51.8791 25.6843L58.8003 15.5631L61.9132 18.8325ZM63.374 19.215C63.5826 18.9368 63.5653 18.5542 63.3218 18.3107L62.5392 17.476L66.2434 18.0325L66.4521 16.6587L60.9741 15.8239L59.3916 14.1718L68.6085 15.563L66.1043 23.8582L60.8698 25.5625L59.27 24.4321L63.374 19.215ZM56.2961 49.8396C55.3048 50.5352 55.0614 51.8394 54.8527 53.1089C54.7136 53.9262 54.5744 54.761 54.2266 55.213C53.931 55.613 53.3049 55.9261 52.6615 56.2391L51.3572 27.0408L54.5049 29.4232C54.8005 29.6493 55.2353 29.5971 55.4787 29.3014L58.4176 25.5451L60.3653 26.919C60.5393 27.0407 60.7653 27.0755 60.974 27.0059L66.8868 25.093C67.0955 25.0234 67.2693 24.8496 67.3389 24.6235L70.1735 15.1979C70.2779 14.8327 70.0692 14.4502 69.704 14.3284C69.6692 14.311 69.6344 14.311 69.5996 14.311L57.7743 12.5198C56.47 11.2502 55.044 10.0852 53.531 9.04168L72.8347 11.9806C73.426 17.9281 71.287 23.8234 67.0438 28.0139L64.3483 30.6572C64.2614 30.7442 64.1918 30.8659 64.157 30.9877L59.479 49.6476C58.366 49.4215 57.2009 49.2302 56.2965 49.8389L56.2961 49.8396ZM66.6607 46.918C65.4956 46.8484 64.5739 47.7527 63.6697 48.6048C63.0784 49.1787 62.4698 49.7699 61.9133 49.9264C61.5655 49.996 61.2003 50.0134 60.8525 49.9438L64.0174 37.3185L71.0432 30.8319L77.7559 39.9443L68.9217 48.2047C68.2782 47.5265 67.5653 46.97 66.6609 46.9178L66.6607 46.918Z" stroke="#A65E34" stroke-width="0.9" mask="url(#path-3-outside-1_20_345)"/>
<path d="M61.3019 74.5141L61.2974 74.5109C60.9192 74.4798 60.5902 74.2198 60.4806 73.8692L60.4787 73.8633L60.4788 73.8632L57.4529 63.1509L57.4511 63.1443L57.4512 63.1443C57.3841 62.8758 57.4284 62.5996 57.5895 62.3695L57.5907 62.3677L57.5908 62.3677L62.772 55.1176C63.0272 54.7482 63.4894 54.636 63.8765 54.7954L63.8783 54.7961L63.8783 54.7961L72.0865 58.2568L72.0922 58.2592L72.0922 58.2593C72.3302 58.3675 72.5431 58.5705 72.6164 58.8579L75.6587 69.5668L61.3019 74.5141ZM61.3019 74.5141H61.3736M61.3019 74.5141H61.3736M61.3736 74.5141C61.4632 74.5141 61.5408 74.4934 61.594 74.4792C61.6033 74.4768 61.6118 74.4745 61.6195 74.4726L61.6195 74.4727M61.3736 74.5141L61.6195 74.4727M61.6195 74.4727L61.626 74.4708M61.6195 74.4727L61.626 74.4708M61.626 74.4708L75.0165 70.6972L75.0173 70.697M61.626 74.4708L75.0173 70.697M75.0173 70.697C75.495 70.5605 75.799 70.0584 75.6588 69.5671L75.0173 70.697ZM69.3634 62.6631L69.3633 62.6627C69.2268 62.185 68.7247 61.881 68.2334 62.0212C68.2333 62.0212 68.2332 62.0212 68.233 62.0213L62.8774 63.534L62.8768 63.5342C62.399 63.6707 62.095 64.1729 62.2352 64.6642C62.2353 64.6643 62.2353 64.6644 62.2353 64.6645L64.2604 71.8028L62.0159 72.4295L59.3588 63.0286L63.8516 56.7759L70.9772 59.7771L73.634 69.1768L71.3891 69.8037L69.3634 62.6631ZM66.033 71.3162L64.26 65.054L67.844 64.0455L69.617 70.3077L66.033 71.3162Z" fill="#A65E34" stroke="#A65E34" stroke-width="0.45"/>
</svg>
