<svg width="81" height="79" viewBox="0 0 81 79" fill="none" xmlns="http://www.w3.org/2000/svg">
<path d="M56.5388 41.5532C55.9531 41.5532 55.4778 42.0286 55.4778 42.6143V47.746C55.4778 48.3318 55.9531 48.8071 56.5388 48.8071C57.1245 48.8071 57.5998 48.3317 57.5998 47.746L57.5998 42.6146L57.362 42.6143H57.5998V42.6145C57.6005 42.0278 57.1209 41.5532 56.5388 41.5532Z" fill="#A65E34" stroke="#A65E34" stroke-width="0.475588"/>
<path d="M25.8059 34.9745V34.8326C25.6984 34.8682 25.5863 34.8864 25.4739 34.8882L25.4702 34.8882C25.1937 34.8882 24.9139 34.7779 24.706 34.5615L24.7058 34.5613C24.2994 34.1372 24.3117 33.4663 24.736 33.0591M25.8059 34.9745L24.9006 33.2307M25.8059 34.9745L26.1947 34.6008M25.8059 34.9745L26.1947 34.6008M24.736 33.0591L24.9006 33.2307M24.736 33.0591L24.7358 33.0592L24.9006 33.2307M24.736 33.0591L27.3808 30.5169L27.3817 30.5161L27.3817 30.5161C27.8045 30.1138 28.4776 30.1251 28.8824 30.542L28.8835 30.5431L28.8835 30.5431C29.2898 30.9672 29.2776 31.6381 28.8533 32.0453M24.9006 33.2307L27.5456 30.6883C27.8748 30.3752 28.3986 30.3851 28.7118 30.7076C29.0277 31.0373 29.0178 31.5578 28.6886 31.8737L26.2815 34.1875V34.4161V34.4161L26.0437 34.4161L26.2103 34.5857C26.2099 34.5861 26.2096 34.5864 26.2092 34.5868M28.8533 32.0453L28.8534 32.0452L28.6887 31.8738L28.8533 32.0453ZM28.8533 32.0453L26.2092 34.5868M26.2092 34.5868C26.2044 34.5915 26.1995 34.5962 26.1947 34.6008M26.2092 34.5868L26.2084 34.5875L26.1947 34.6008" fill="#A65E34" stroke="#A65E34" stroke-width="0.475588"/>
<path d="M30.761 31.205L30.76 31.2059L25.2901 36.4581C25.2899 36.4582 25.2898 36.4584 25.2896 36.4585C24.8641 36.8632 24.8533 37.5378 25.259 37.9612L25.2592 37.9614C25.4671 38.1778 25.7469 38.2881 26.0234 38.2881C26.2885 38.2881 26.5538 38.1912 26.7586 37.9905L32.2277 32.7392C32.2278 32.739 32.228 32.7389 32.2281 32.7387C32.6537 32.3341 32.6645 31.6595 32.2588 31.2361L32.2587 31.236C31.9674 30.9323 31.538 30.8417 31.1625 30.9649V30.8194L30.761 31.205Z" fill="#A65E34" stroke="#A65E34" stroke-width="0.475588"/>
<mask id="path-4-outside-1_20_354" maskUnits="userSpaceOnUse" x="0.0720215" y="-0.0214844" width="81" height="79" fill="black">
<rect fill="white" x="0.0720215" y="-0.0214844" width="81" height="79"/>
<path d="M78.9995 57.5869C78.9995 57.5836 78.9962 57.5836 78.9962 57.5802V20.6649C78.9962 16.8277 75.8737 13.7052 72.0365 13.7052H64.975L63.8716 11.5019H64.5405C64.9948 11.5019 65.3637 11.133 65.3637 10.6787V6.13625C65.3637 6.08662 65.3207 6.0574 65.3108 6.01108C65.2909 5.8826 65.2484 5.7773 65.169 5.67198C65.1227 5.60967 65.0869 5.56335 65.024 5.51373C64.9876 5.48395 64.9744 5.43819 64.932 5.41172L57.1788 1.15937C57.0603 1.09376 56.9219 1.05736 56.7868 1.05736L23.3668 0.978516C23.2317 0.978516 23.0967 1.0116 22.9781 1.07722L14.8926 5.41171C14.8496 5.43487 14.833 5.4845 14.7966 5.51372C14.7343 5.56004 14.6946 5.60967 14.6489 5.67197C14.5728 5.77729 14.5303 5.88316 14.5105 6.01108C14.5005 6.05739 14.4575 6.08717 14.4575 6.13624V10.6781C14.4575 11.1325 14.8264 11.5013 15.2807 11.5013H16.2655L15.1462 13.7052H8.03169C4.19452 13.7052 1.07202 16.8277 1.07202 20.6649V60.0604C1.07202 63.8976 4.19452 67.0167 8.03169 67.0167H32.8398V76.4433L23.5582 76.4427C23.1039 76.4427 22.735 76.8116 22.735 77.266C22.735 77.7203 23.1039 78.0892 23.5582 78.0892H33.6398C33.6498 78.0892 33.6531 78.0991 33.663 78.0991C33.6729 78.0991 33.6762 78.0892 33.6862 78.0892H46.383C46.3929 78.0892 46.3962 78.0991 46.4061 78.0991C46.416 78.0991 46.4193 78.0892 46.4293 78.0892H56.2605C56.7148 78.0892 57.0837 77.7203 57.0837 77.266C57.0837 76.8116 56.7148 76.4427 56.2605 76.4427H47.2293V67.0162H72.0332C75.8704 67.0162 78.9929 63.8969 78.9929 60.0598V57.5896C78.9967 57.5901 79 57.5868 79 57.5868L78.9995 57.5869ZM66.0518 19.5423V22.9318C66.0518 24.3642 64.9616 25.5272 63.6246 25.5272C62.2875 25.5272 61.1974 24.361 61.1974 22.9318V19.3476C61.1974 19.2159 61.1643 19.0841 61.1053 18.9688L57.2285 11.5019H62.0339L66.0518 19.5423ZM61.2007 53.0656V41.3105C61.2007 39.2091 60.3807 37.2329 58.8921 35.7441C57.4067 34.2554 55.4271 33.4355 53.3291 33.4355C48.988 33.4355 45.451 36.9694 45.451 41.3105V53.0656H17.3667V27.0222C18.4766 26.8149 19.4018 26.2056 20.0277 25.3129C20.2814 25.6752 20.5681 25.9884 20.9171 26.2547V41.7876L19.2403 41.7882C18.786 41.7882 18.4171 42.157 18.4171 42.6114C18.4171 43.0657 18.786 43.4346 19.2403 43.4346H40.9952C41.4496 43.4346 41.8184 43.0657 41.8184 42.6114C41.8184 42.157 41.4495 41.7882 40.9952 41.7882H39.2363V26.2426C39.5688 25.9823 39.8423 25.6796 40.0827 25.33C40.8403 26.4168 42.0258 27.1711 43.4357 27.1711C44.8522 27.1711 46.041 26.4069 46.7985 25.3101C47.5727 26.4068 48.7946 27.1711 50.2436 27.1711C51.6959 27.1711 52.9178 26.4069 53.692 25.3069C54.443 26.4036 55.6285 27.1711 57.0384 27.1711C58.3954 27.1711 59.604 26.5023 60.3616 25.4717C60.9312 26.2591 61.755 26.8287 62.7034 27.0559V53.0626L61.2019 53.0632L61.2007 53.0656ZM47.0973 53.0656V41.3105C47.0973 37.8753 49.8934 35.082 53.329 35.082C54.9893 35.082 56.5535 35.731 57.7291 36.9098C58.9046 38.0887 59.5569 39.6536 59.5569 41.3099V53.065L47.0973 53.0656ZM29.6448 11.502L26.0415 18.9917C25.9858 19.1003 25.9593 19.2254 25.9593 19.3473V22.9308C25.9593 24.3633 24.813 25.5263 23.407 25.5263C21.9971 25.5263 20.8546 24.3601 20.8546 22.9308L20.854 19.5287L24.5594 11.5021L29.6448 11.502ZM43.9819 11.502L45.9648 19.3472V22.9241C45.9648 22.9274 45.9615 22.9274 45.9615 22.9308V22.9374C45.9581 24.3633 44.825 25.5262 43.4317 25.5262C42.0317 25.5262 40.8958 24.36 40.8958 22.9307V11.502L43.9819 11.502ZM55.3715 11.502L59.551 19.5485V22.9313C59.551 24.3638 58.4245 25.5268 57.0411 25.5268C55.6577 25.5268 54.5312 24.3606 54.5312 22.9313L54.5318 19.3472C54.5318 19.2154 54.4987 19.0837 54.4397 18.9684L50.5628 11.5015L55.3715 11.502ZM48.7085 11.502L52.888 19.5485V22.9215C52.888 22.9248 52.8847 22.9248 52.8847 22.9281C52.8847 24.3605 51.7025 25.5235 50.2464 25.5235C48.794 25.5235 47.6179 24.3639 47.6145 22.9347V22.9281L47.5881 19.1472L45.6741 11.4993L48.7084 11.4988L48.7085 11.502ZM39.2555 19.3472V22.9308C39.2555 24.3632 38.1389 25.5262 36.7654 25.5262C35.3918 25.5262 34.2752 24.36 34.2752 22.9308L34.2758 19.4498L36.2652 11.4988H39.256L39.2555 19.3472ZM22.5639 41.7911V27.0022C22.844 27.0612 23.1075 27.1731 23.4075 27.1731C24.8274 27.1731 26.0194 26.4122 26.7804 25.3221C27.5347 26.4122 28.7135 27.1731 30.1169 27.1731C31.5169 27.1731 32.6958 26.4188 33.45 25.3352C34.201 26.4187 35.3732 27.1731 36.7633 27.1731C37.0567 27.1731 37.3136 27.0611 37.5866 27.0016V41.7864L22.5634 41.7869L22.5639 41.7911ZM32.6527 19.151C32.646 19.1874 32.6725 19.2172 32.6692 19.253C32.6659 19.2894 32.6295 19.3126 32.6295 19.3484V22.932C32.6295 24.3644 31.503 25.5274 30.1196 25.5274C28.7362 25.5274 27.6097 24.3612 27.6097 22.932C27.6097 22.9287 27.6064 22.9287 27.6064 22.9253L27.607 19.5365L31.4705 11.5032H34.5667L32.6527 19.151ZM23.5718 2.62721L56.5768 2.70937L61.3264 5.3147H18.5591L23.5718 2.62721ZM16.1054 6.96171H63.7172V9.85712L16.1054 9.85657V6.96171ZM22.7452 11.5036L19.2837 19.0031C19.2341 19.1117 19.2081 19.2303 19.2081 19.3488V22.9324C19.2081 24.3648 18.042 25.5278 16.6127 25.5278C15.183 25.5278 14.0173 24.3655 14.0173 22.9324V19.5469L18.1146 11.5037L22.7452 11.5036ZM8.0326 15.3539H14.3068L12.4625 18.9771C12.4002 19.0924 12.3704 19.2208 12.3704 19.3488V22.9323C12.3704 24.9548 13.8228 26.572 15.72 26.9934V53.8894C15.72 54.3437 16.0889 54.7126 16.5432 54.7126H63.5311C63.9854 54.7126 64.3543 54.3437 64.3543 53.8894V27.023C66.2417 26.6541 67.7039 25.0038 67.7039 22.9323V19.3488C67.7039 19.2203 67.6741 19.0951 67.6185 18.9799L65.8039 15.35H72.0417C74.9729 15.35 77.3544 17.7349 77.3544 20.6627V56.7579L2.72123 56.7585V20.6661C2.72123 17.7348 5.10605 15.3534 8.0339 15.3534L8.0326 15.3539ZM45.587 76.4479H34.4875V67.0214H45.587V76.4479ZM72.0382 65.3749H46.417C46.4137 65.3749 46.4137 65.3716 46.4104 65.3716C46.4071 65.3716 46.4071 65.3749 46.4038 65.3749H33.6738C33.6705 65.3749 33.6705 65.3716 33.6672 65.3716C33.6639 65.3716 33.6639 65.3749 33.6606 65.3749H8.0338C5.10257 65.3749 2.72113 62.9901 2.72113 60.0656V58.4119H77.3515V60.0656C77.3515 62.9902 74.9666 65.3749 72.0388 65.3749H72.0382Z"/>
</mask>
<path d="M78.9995 57.5869C78.9995 57.5836 78.9962 57.5836 78.9962 57.5802V20.6649C78.9962 16.8277 75.8737 13.7052 72.0365 13.7052H64.975L63.8716 11.5019H64.5405C64.9948 11.5019 65.3637 11.133 65.3637 10.6787V6.13625C65.3637 6.08662 65.3207 6.0574 65.3108 6.01108C65.2909 5.8826 65.2484 5.7773 65.169 5.67198C65.1227 5.60967 65.0869 5.56335 65.024 5.51373C64.9876 5.48395 64.9744 5.43819 64.932 5.41172L57.1788 1.15937C57.0603 1.09376 56.9219 1.05736 56.7868 1.05736L23.3668 0.978516C23.2317 0.978516 23.0967 1.0116 22.9781 1.07722L14.8926 5.41171C14.8496 5.43487 14.833 5.4845 14.7966 5.51372C14.7343 5.56004 14.6946 5.60967 14.6489 5.67197C14.5728 5.77729 14.5303 5.88316 14.5105 6.01108C14.5005 6.05739 14.4575 6.08717 14.4575 6.13624V10.6781C14.4575 11.1325 14.8264 11.5013 15.2807 11.5013H16.2655L15.1462 13.7052H8.03169C4.19452 13.7052 1.07202 16.8277 1.07202 20.6649V60.0604C1.07202 63.8976 4.19452 67.0167 8.03169 67.0167H32.8398V76.4433L23.5582 76.4427C23.1039 76.4427 22.735 76.8116 22.735 77.266C22.735 77.7203 23.1039 78.0892 23.5582 78.0892H33.6398C33.6498 78.0892 33.6531 78.0991 33.663 78.0991C33.6729 78.0991 33.6762 78.0892 33.6862 78.0892H46.383C46.3929 78.0892 46.3962 78.0991 46.4061 78.0991C46.416 78.0991 46.4193 78.0892 46.4293 78.0892H56.2605C56.7148 78.0892 57.0837 77.7203 57.0837 77.266C57.0837 76.8116 56.7148 76.4427 56.2605 76.4427H47.2293V67.0162H72.0332C75.8704 67.0162 78.9929 63.8969 78.9929 60.0598V57.5896C78.9967 57.5901 79 57.5868 79 57.5868L78.9995 57.5869ZM66.0518 19.5423V22.9318C66.0518 24.3642 64.9616 25.5272 63.6246 25.5272C62.2875 25.5272 61.1974 24.361 61.1974 22.9318V19.3476C61.1974 19.2159 61.1643 19.0841 61.1053 18.9688L57.2285 11.5019H62.0339L66.0518 19.5423ZM61.2007 53.0656V41.3105C61.2007 39.2091 60.3807 37.2329 58.8921 35.7441C57.4067 34.2554 55.4271 33.4355 53.3291 33.4355C48.988 33.4355 45.451 36.9694 45.451 41.3105V53.0656H17.3667V27.0222C18.4766 26.8149 19.4018 26.2056 20.0277 25.3129C20.2814 25.6752 20.5681 25.9884 20.9171 26.2547V41.7876L19.2403 41.7882C18.786 41.7882 18.4171 42.157 18.4171 42.6114C18.4171 43.0657 18.786 43.4346 19.2403 43.4346H40.9952C41.4496 43.4346 41.8184 43.0657 41.8184 42.6114C41.8184 42.157 41.4495 41.7882 40.9952 41.7882H39.2363V26.2426C39.5688 25.9823 39.8423 25.6796 40.0827 25.33C40.8403 26.4168 42.0258 27.1711 43.4357 27.1711C44.8522 27.1711 46.041 26.4069 46.7985 25.3101C47.5727 26.4068 48.7946 27.1711 50.2436 27.1711C51.6959 27.1711 52.9178 26.4069 53.692 25.3069C54.443 26.4036 55.6285 27.1711 57.0384 27.1711C58.3954 27.1711 59.604 26.5023 60.3616 25.4717C60.9312 26.2591 61.755 26.8287 62.7034 27.0559V53.0626L61.2019 53.0632L61.2007 53.0656ZM47.0973 53.0656V41.3105C47.0973 37.8753 49.8934 35.082 53.329 35.082C54.9893 35.082 56.5535 35.731 57.7291 36.9098C58.9046 38.0887 59.5569 39.6536 59.5569 41.3099V53.065L47.0973 53.0656ZM29.6448 11.502L26.0415 18.9917C25.9858 19.1003 25.9593 19.2254 25.9593 19.3473V22.9308C25.9593 24.3633 24.813 25.5263 23.407 25.5263C21.9971 25.5263 20.8546 24.3601 20.8546 22.9308L20.854 19.5287L24.5594 11.5021L29.6448 11.502ZM43.9819 11.502L45.9648 19.3472V22.9241C45.9648 22.9274 45.9615 22.9274 45.9615 22.9308V22.9374C45.9581 24.3633 44.825 25.5262 43.4317 25.5262C42.0317 25.5262 40.8958 24.36 40.8958 22.9307V11.502L43.9819 11.502ZM55.3715 11.502L59.551 19.5485V22.9313C59.551 24.3638 58.4245 25.5268 57.0411 25.5268C55.6577 25.5268 54.5312 24.3606 54.5312 22.9313L54.5318 19.3472C54.5318 19.2154 54.4987 19.0837 54.4397 18.9684L50.5628 11.5015L55.3715 11.502ZM48.7085 11.502L52.888 19.5485V22.9215C52.888 22.9248 52.8847 22.9248 52.8847 22.9281C52.8847 24.3605 51.7025 25.5235 50.2464 25.5235C48.794 25.5235 47.6179 24.3639 47.6145 22.9347V22.9281L47.5881 19.1472L45.6741 11.4993L48.7084 11.4988L48.7085 11.502ZM39.2555 19.3472V22.9308C39.2555 24.3632 38.1389 25.5262 36.7654 25.5262C35.3918 25.5262 34.2752 24.36 34.2752 22.9308L34.2758 19.4498L36.2652 11.4988H39.256L39.2555 19.3472ZM22.5639 41.7911V27.0022C22.844 27.0612 23.1075 27.1731 23.4075 27.1731C24.8274 27.1731 26.0194 26.4122 26.7804 25.3221C27.5347 26.4122 28.7135 27.1731 30.1169 27.1731C31.5169 27.1731 32.6958 26.4188 33.45 25.3352C34.201 26.4187 35.3732 27.1731 36.7633 27.1731C37.0567 27.1731 37.3136 27.0611 37.5866 27.0016V41.7864L22.5634 41.7869L22.5639 41.7911ZM32.6527 19.151C32.646 19.1874 32.6725 19.2172 32.6692 19.253C32.6659 19.2894 32.6295 19.3126 32.6295 19.3484V22.932C32.6295 24.3644 31.503 25.5274 30.1196 25.5274C28.7362 25.5274 27.6097 24.3612 27.6097 22.932C27.6097 22.9287 27.6064 22.9287 27.6064 22.9253L27.607 19.5365L31.4705 11.5032H34.5667L32.6527 19.151ZM23.5718 2.62721L56.5768 2.70937L61.3264 5.3147H18.5591L23.5718 2.62721ZM16.1054 6.96171H63.7172V9.85712L16.1054 9.85657V6.96171ZM22.7452 11.5036L19.2837 19.0031C19.2341 19.1117 19.2081 19.2303 19.2081 19.3488V22.9324C19.2081 24.3648 18.042 25.5278 16.6127 25.5278C15.183 25.5278 14.0173 24.3655 14.0173 22.9324V19.5469L18.1146 11.5037L22.7452 11.5036ZM8.0326 15.3539H14.3068L12.4625 18.9771C12.4002 19.0924 12.3704 19.2208 12.3704 19.3488V22.9323C12.3704 24.9548 13.8228 26.572 15.72 26.9934V53.8894C15.72 54.3437 16.0889 54.7126 16.5432 54.7126H63.5311C63.9854 54.7126 64.3543 54.3437 64.3543 53.8894V27.023C66.2417 26.6541 67.7039 25.0038 67.7039 22.9323V19.3488C67.7039 19.2203 67.6741 19.0951 67.6185 18.9799L65.8039 15.35H72.0417C74.9729 15.35 77.3544 17.7349 77.3544 20.6627V56.7579L2.72123 56.7585V20.6661C2.72123 17.7348 5.10605 15.3534 8.0339 15.3534L8.0326 15.3539ZM45.587 76.4479H34.4875V67.0214H45.587V76.4479ZM72.0382 65.3749H46.417C46.4137 65.3749 46.4137 65.3716 46.4104 65.3716C46.4071 65.3716 46.4071 65.3749 46.4038 65.3749H33.6738C33.6705 65.3749 33.6705 65.3716 33.6672 65.3716C33.6639 65.3716 33.6639 65.3749 33.6606 65.3749H8.0338C5.10257 65.3749 2.72113 62.9901 2.72113 60.0656V58.4119H77.3515V60.0656C77.3515 62.9902 74.9666 65.3749 72.0388 65.3749H72.0382Z" fill="#A65E34"/>
<path d="M78.9995 57.5869C78.9995 57.5836 78.9962 57.5836 78.9962 57.5802V20.6649C78.9962 16.8277 75.8737 13.7052 72.0365 13.7052H64.975L63.8716 11.5019H64.5405C64.9948 11.5019 65.3637 11.133 65.3637 10.6787V6.13625C65.3637 6.08662 65.3207 6.0574 65.3108 6.01108C65.2909 5.8826 65.2484 5.7773 65.169 5.67198C65.1227 5.60967 65.0869 5.56335 65.024 5.51373C64.9876 5.48395 64.9744 5.43819 64.932 5.41172L57.1788 1.15937C57.0603 1.09376 56.9219 1.05736 56.7868 1.05736L23.3668 0.978516C23.2317 0.978516 23.0967 1.0116 22.9781 1.07722L14.8926 5.41171C14.8496 5.43487 14.833 5.4845 14.7966 5.51372C14.7343 5.56004 14.6946 5.60967 14.6489 5.67197C14.5728 5.77729 14.5303 5.88316 14.5105 6.01108C14.5005 6.05739 14.4575 6.08717 14.4575 6.13624V10.6781C14.4575 11.1325 14.8264 11.5013 15.2807 11.5013H16.2655L15.1462 13.7052H8.03169C4.19452 13.7052 1.07202 16.8277 1.07202 20.6649V60.0604C1.07202 63.8976 4.19452 67.0167 8.03169 67.0167H32.8398V76.4433L23.5582 76.4427C23.1039 76.4427 22.735 76.8116 22.735 77.266C22.735 77.7203 23.1039 78.0892 23.5582 78.0892H33.6398C33.6498 78.0892 33.6531 78.0991 33.663 78.0991C33.6729 78.0991 33.6762 78.0892 33.6862 78.0892H46.383C46.3929 78.0892 46.3962 78.0991 46.4061 78.0991C46.416 78.0991 46.4193 78.0892 46.4293 78.0892H56.2605C56.7148 78.0892 57.0837 77.7203 57.0837 77.266C57.0837 76.8116 56.7148 76.4427 56.2605 76.4427H47.2293V67.0162H72.0332C75.8704 67.0162 78.9929 63.8969 78.9929 60.0598V57.5896C78.9967 57.5901 79 57.5868 79 57.5868L78.9995 57.5869ZM66.0518 19.5423V22.9318C66.0518 24.3642 64.9616 25.5272 63.6246 25.5272C62.2875 25.5272 61.1974 24.361 61.1974 22.9318V19.3476C61.1974 19.2159 61.1643 19.0841 61.1053 18.9688L57.2285 11.5019H62.0339L66.0518 19.5423ZM61.2007 53.0656V41.3105C61.2007 39.2091 60.3807 37.2329 58.8921 35.7441C57.4067 34.2554 55.4271 33.4355 53.3291 33.4355C48.988 33.4355 45.451 36.9694 45.451 41.3105V53.0656H17.3667V27.0222C18.4766 26.8149 19.4018 26.2056 20.0277 25.3129C20.2814 25.6752 20.5681 25.9884 20.9171 26.2547V41.7876L19.2403 41.7882C18.786 41.7882 18.4171 42.157 18.4171 42.6114C18.4171 43.0657 18.786 43.4346 19.2403 43.4346H40.9952C41.4496 43.4346 41.8184 43.0657 41.8184 42.6114C41.8184 42.157 41.4495 41.7882 40.9952 41.7882H39.2363V26.2426C39.5688 25.9823 39.8423 25.6796 40.0827 25.33C40.8403 26.4168 42.0258 27.1711 43.4357 27.1711C44.8522 27.1711 46.041 26.4069 46.7985 25.3101C47.5727 26.4068 48.7946 27.1711 50.2436 27.1711C51.6959 27.1711 52.9178 26.4069 53.692 25.3069C54.443 26.4036 55.6285 27.1711 57.0384 27.1711C58.3954 27.1711 59.604 26.5023 60.3616 25.4717C60.9312 26.2591 61.755 26.8287 62.7034 27.0559V53.0626L61.2019 53.0632L61.2007 53.0656ZM47.0973 53.0656V41.3105C47.0973 37.8753 49.8934 35.082 53.329 35.082C54.9893 35.082 56.5535 35.731 57.7291 36.9098C58.9046 38.0887 59.5569 39.6536 59.5569 41.3099V53.065L47.0973 53.0656ZM29.6448 11.502L26.0415 18.9917C25.9858 19.1003 25.9593 19.2254 25.9593 19.3473V22.9308C25.9593 24.3633 24.813 25.5263 23.407 25.5263C21.9971 25.5263 20.8546 24.3601 20.8546 22.9308L20.854 19.5287L24.5594 11.5021L29.6448 11.502ZM43.9819 11.502L45.9648 19.3472V22.9241C45.9648 22.9274 45.9615 22.9274 45.9615 22.9308V22.9374C45.9581 24.3633 44.825 25.5262 43.4317 25.5262C42.0317 25.5262 40.8958 24.36 40.8958 22.9307V11.502L43.9819 11.502ZM55.3715 11.502L59.551 19.5485V22.9313C59.551 24.3638 58.4245 25.5268 57.0411 25.5268C55.6577 25.5268 54.5312 24.3606 54.5312 22.9313L54.5318 19.3472C54.5318 19.2154 54.4987 19.0837 54.4397 18.9684L50.5628 11.5015L55.3715 11.502ZM48.7085 11.502L52.888 19.5485V22.9215C52.888 22.9248 52.8847 22.9248 52.8847 22.9281C52.8847 24.3605 51.7025 25.5235 50.2464 25.5235C48.794 25.5235 47.6179 24.3639 47.6145 22.9347V22.9281L47.5881 19.1472L45.6741 11.4993L48.7084 11.4988L48.7085 11.502ZM39.2555 19.3472V22.9308C39.2555 24.3632 38.1389 25.5262 36.7654 25.5262C35.3918 25.5262 34.2752 24.36 34.2752 22.9308L34.2758 19.4498L36.2652 11.4988H39.256L39.2555 19.3472ZM22.5639 41.7911V27.0022C22.844 27.0612 23.1075 27.1731 23.4075 27.1731C24.8274 27.1731 26.0194 26.4122 26.7804 25.3221C27.5347 26.4122 28.7135 27.1731 30.1169 27.1731C31.5169 27.1731 32.6958 26.4188 33.45 25.3352C34.201 26.4187 35.3732 27.1731 36.7633 27.1731C37.0567 27.1731 37.3136 27.0611 37.5866 27.0016V41.7864L22.5634 41.7869L22.5639 41.7911ZM32.6527 19.151C32.646 19.1874 32.6725 19.2172 32.6692 19.253C32.6659 19.2894 32.6295 19.3126 32.6295 19.3484V22.932C32.6295 24.3644 31.503 25.5274 30.1196 25.5274C28.7362 25.5274 27.6097 24.3612 27.6097 22.932C27.6097 22.9287 27.6064 22.9287 27.6064 22.9253L27.607 19.5365L31.4705 11.5032H34.5667L32.6527 19.151ZM23.5718 2.62721L56.5768 2.70937L61.3264 5.3147H18.5591L23.5718 2.62721ZM16.1054 6.96171H63.7172V9.85712L16.1054 9.85657V6.96171ZM22.7452 11.5036L19.2837 19.0031C19.2341 19.1117 19.2081 19.2303 19.2081 19.3488V22.9324C19.2081 24.3648 18.042 25.5278 16.6127 25.5278C15.183 25.5278 14.0173 24.3655 14.0173 22.9324V19.5469L18.1146 11.5037L22.7452 11.5036ZM8.0326 15.3539H14.3068L12.4625 18.9771C12.4002 19.0924 12.3704 19.2208 12.3704 19.3488V22.9323C12.3704 24.9548 13.8228 26.572 15.72 26.9934V53.8894C15.72 54.3437 16.0889 54.7126 16.5432 54.7126H63.5311C63.9854 54.7126 64.3543 54.3437 64.3543 53.8894V27.023C66.2417 26.6541 67.7039 25.0038 67.7039 22.9323V19.3488C67.7039 19.2203 67.6741 19.0951 67.6185 18.9799L65.8039 15.35H72.0417C74.9729 15.35 77.3544 17.7349 77.3544 20.6627V56.7579L2.72123 56.7585V20.6661C2.72123 17.7348 5.10605 15.3534 8.0339 15.3534L8.0326 15.3539ZM45.587 76.4479H34.4875V67.0214H45.587V76.4479ZM72.0382 65.3749H46.417C46.4137 65.3749 46.4137 65.3716 46.4104 65.3716C46.4071 65.3716 46.4071 65.3749 46.4038 65.3749H33.6738C33.6705 65.3749 33.6705 65.3716 33.6672 65.3716C33.6639 65.3716 33.6639 65.3749 33.6606 65.3749H8.0338C5.10257 65.3749 2.72113 62.9901 2.72113 60.0656V58.4119H77.3515V60.0656C77.3515 62.9902 74.9666 65.3749 72.0388 65.3749H72.0382Z" stroke="#A65E34" stroke-width="0.951177" mask="url(#path-4-outside-1_20_354)"/>
</svg>
