<svg width="62" height="71" viewBox="0 0 62 71" fill="none" xmlns="http://www.w3.org/2000/svg">
<path d="M57.4468 6.26592C56.97 6.12453 56.4755 6.0522 55.9763 6.0522H53.2565L47.8411 4.46932L43.5075 0.344761L43.4864 0.325033C43.4384 0.279657 43.3799 0.25927 43.3273 0.223102C43.2582 0.175754 43.1951 0.122486 43.1168 0.0889474C42.9847 0.0350234 42.8452 0.010034 42.7052 0.00608787C42.694 0.00608787 42.6855 -0.000488281 42.6743 -0.000488281H18.72C18.7075 -0.000488281 18.6983 0.00608791 18.6852 0.00674549C18.5464 0.0106913 18.4083 0.0350234 18.2768 0.0889474C18.2005 0.119855 18.14 0.17378 18.0729 0.219155C18.0184 0.255982 17.9559 0.277683 17.9072 0.325031L13.5526 4.46929L8.13647 6.05216H5.41849C4.92069 6.05216 4.42879 6.12319 3.95597 6.26326C1.78394 6.90509 0.266113 8.93715 0.266113 11.204V65.0539C0.266113 67.8941 2.57753 70.2051 5.41841 70.2051H55.975C58.8166 70.2051 61.1273 67.8941 61.1273 65.0539V11.204C61.1273 8.94052 59.6122 6.91107 57.446 6.26595L57.4468 6.26592ZM9.53152 8.10126L13.8382 6.84258L25.3221 17.7754C25.549 17.9911 25.8422 18.1009 26.1349 18.1009C26.4269 18.1009 26.7201 17.9924 26.9477 17.7754L29.5195 15.3271V21.1733C18.807 20.7853 10.1932 15.141 9.53155 8.10133L9.53152 8.10126ZM30.6962 10.9533L21.6666 2.35701H39.7253L30.6962 10.9533ZM31.8747 15.3277L34.4472 17.776C34.6741 17.9917 34.9667 18.1015 35.2587 18.1015C35.5507 18.1015 35.8433 17.993 36.0715 17.776L47.5574 6.84319L51.8627 8.10055C51.2012 15.1423 42.5859 20.7865 31.8747 21.1746L31.8747 15.3277ZM35.2593 15.2954L32.4053 12.5795L42.6752 2.80475L45.5279 5.52073L35.2593 15.2954ZM18.7205 2.80475L28.987 12.5795L26.133 15.2954L15.8665 5.52073L18.7205 2.80475ZM58.7722 65.0553C58.7722 66.5961 57.5181 67.8496 55.9767 67.8496H5.42012C3.8787 67.8496 2.62471 66.5955 2.62471 65.0553V11.2054C2.62471 9.97499 3.44803 8.87223 4.62653 8.52425C4.88299 8.44863 5.14999 8.41049 5.42026 8.41049H7.18993C8.06455 16.8635 18.274 23.5547 30.6981 23.5547H30.6987C43.1223 23.5547 53.3314 16.8621 54.2068 8.41049H55.9784C56.25 8.41049 56.5176 8.44929 56.7767 8.52623C57.9525 8.87476 58.7732 9.97693 58.7732 11.2053L58.7722 65.0553Z" fill="#A65E34"/>
<path d="M52.5308 31.1108H36.8718C36.2214 31.1108 35.6934 31.6389 35.6934 32.2893V45.6152C35.6934 47.7176 37.4044 49.4287 39.5075 49.4287H49.8964C51.9987 49.4287 53.7098 47.7183 53.7098 45.6152L53.7104 32.2893C53.7091 31.6382 53.1811 31.1108 52.5307 31.1108H52.5308ZM51.3524 33.4677V36.1245H38.0502V33.4677H51.3524ZM49.8958 47.0713H39.5069C38.7026 47.0713 38.0496 46.4183 38.0496 45.6147V38.4815H51.3518V45.6147C51.3525 46.4176 50.6982 47.0713 49.8959 47.0713H49.8958Z" fill="#A65E34"/>
</svg>
