<svg width="78" height="72" viewBox="0 0 78 72" fill="none" xmlns="http://www.w3.org/2000/svg">
<path d="M25.9546 64.1851H52.1009C52.7312 64.1851 53.3361 63.9346 53.7817 63.489C54.2274 63.0433 54.4778 62.4385 54.4778 61.8082V48.7353C54.4778 48.105 54.2274 47.5001 53.7817 47.0545C53.3361 46.6088 52.7312 46.3584 52.1009 46.3584H25.9546C25.3243 46.3584 24.7194 46.6088 24.2737 47.0545C23.8281 47.5001 23.5776 48.105 23.5776 48.7353V61.8082C23.5776 62.4385 23.8281 63.0433 24.2737 63.489C24.7194 63.9346 25.3243 64.1851 25.9546 64.1851ZM25.9546 48.7353H52.1009V61.8082H25.9546V48.7353Z" fill="#A65E34"/>
<path d="M63.2956 11.4573L62.4637 11.9459L59.065 14.2767L57.2514 10.5081L56.8058 9.72498L56.8052 9.72445C55.1562 6.90391 52.1357 5.16848 48.8684 5.16481C45.9466 5.16481 43.2005 6.55973 41.4755 8.9186C39.7512 11.2769 39.2556 14.3171 40.1416 17.1015L41.3895 21.0234C42.37 24.1156 44.4467 26.7429 47.2284 28.4111C48.011 28.8801 48.6195 29.5911 48.9629 30.4368C49.3061 31.2825 49.3645 32.2168 49.13 33.0987L47.497 39.2787H36.6511V17.8333C36.6511 17.203 36.4006 16.5982 35.955 16.1525C35.5093 15.7068 34.9044 15.4564 34.2741 15.4564H31.8972V12.8677C31.8802 11.7121 32.2574 10.5846 32.9668 9.67216C34.0157 8.37068 34.4684 6.68768 34.2136 5.03551C33.9584 3.38388 33.0193 1.91575 31.6266 0.991053C30.2338 0.0668067 28.5165 -0.228191 26.895 0.178753C25.8514 0.430776 24.8969 0.963454 24.135 1.72009C23.3731 2.47668 22.833 3.42741 22.5736 4.46891C22.1083 6.30472 22.5417 8.25231 23.7419 9.71732C24.4449 10.649 24.8067 11.7939 24.7664 12.9607V15.4565H22.3895C21.7592 15.4565 21.1543 15.7069 20.7086 16.1526C20.263 16.5982 20.0125 17.2031 20.0125 17.8334V22.3638C19.2825 22.2625 18.5471 22.5071 18.023 23.026L16.3167 24.7179L14.4614 22.8768V22.8774C13.6263 22.0762 13.0903 21.014 12.9423 19.8669C12.7646 18.2838 11.9613 16.8368 10.7112 15.8495C9.46123 14.8616 7.86842 14.4139 6.28687 14.6064C4.45636 14.8266 2.827 15.8713 1.86359 17.4434C1.30014 18.3591 0.999827 19.4128 0.996119 20.4878C0.992936 21.5632 1.28581 22.6186 1.84344 23.538C2.82446 25.1668 4.51797 26.2348 6.41055 26.419C7.57726 26.5776 8.65479 27.131 9.46295 27.9879L11.2457 29.7505L9.5473 31.4318C9.10056 31.8764 8.85014 32.4808 8.85014 33.1105C8.85014 33.7403 9.10057 34.3446 9.5473 34.7892L10.3909 35.6328C10.4243 35.6646 10.4588 35.6943 10.4944 35.724L13.7791 38.9971V38.9976C13.812 39.0295 13.8465 39.0597 13.8826 39.0878L14.0741 39.2778L3.42302 39.2783C2.77573 39.2778 2.15603 39.5409 1.70768 40.0073C1.25882 40.4742 1.02007 41.1035 1.04607 41.7502L1.36228 49.6381C1.58035 55.4711 4.05542 60.9911 8.26491 65.0352C12.4739 69.0791 18.0894 71.3304 23.9255 71.3144H54.1303C59.9666 71.3298 65.5816 69.078 69.7909 65.0341C73.9993 60.9906 76.4739 55.4707 76.6925 49.6384L77.0087 41.7516C77.0347 41.1048 76.7959 40.475 76.3471 40.0081C75.8988 39.5412 75.2791 39.2781 74.6318 39.2786H57.3548L58.3496 35.537C58.5878 34.6579 59.1041 33.879 59.8214 33.3166C60.5382 32.7542 61.4174 32.4385 62.3283 32.4162C65.5759 32.3621 68.6904 31.1168 71.079 28.916L74.1106 26.1232H74.1112C76.3453 24.0651 77.4144 21.0334 76.9662 18.0294C76.5179 15.0248 74.6099 12.4377 71.8722 11.1215C69.1345 9.80512 65.9224 9.9314 63.2961 11.4573L63.2956 11.4573ZM48.4473 26.3708C46.1627 25.0004 44.4579 22.8416 43.6558 20.3011L42.4068 16.3792H42.4063C41.7505 14.3179 42.1176 12.0673 43.3947 10.3207C44.6712 8.57467 46.7049 7.54213 48.8681 7.54213C51.2837 7.54584 53.5173 8.82715 54.7403 10.9102L57.33 16.1703L51.1855 39.2795H49.9615L51.4338 33.7079V33.7074C51.7983 32.3264 51.7039 30.8641 51.1654 29.5409C50.6263 28.2176 49.6729 27.1055 48.4472 26.3713L48.4473 26.3708ZM33.8067 39.2789C33.9696 39.2004 34.1277 39.1235 34.2736 39.0412V39.2789H33.8067ZM34.2736 28.5053V30.8823C26.9051 30.6828 23.4267 28.6968 22.3889 27.9573V25.9725C24.4294 27.0362 28.1757 28.3483 34.2736 28.5053ZM31.0906 33.0607C28.277 33.9616 25.3431 34.4296 22.3889 34.4487V30.7278C25.1181 32.042 28.0696 32.8336 31.0906 33.0607ZM22.3889 36.8246C28.4867 36.6675 32.2331 35.3555 34.2736 34.2932V36.278C33.2326 37.0198 29.7574 39.0029 22.3889 39.203V36.8246ZM34.2736 26.1284C26.9051 25.9289 23.4267 23.943 22.3889 23.2034V21.2186C24.4294 22.2813 28.1757 23.5955 34.2736 23.75V26.1284ZM20.0119 34.8971C18.4945 35.8627 16.8158 36.5471 15.056 36.9175L13.6441 35.5105C15.9313 34.738 18.0806 33.6062 20.0119 32.1572V34.8971ZM17.4402 39.2791L17.0338 38.8737C18.061 38.5437 19.0579 38.124 20.0119 37.62V39.2838L17.4402 39.2791ZM25.5717 8.2078C24.8501 7.31857 24.5954 6.13919 24.8846 5.03073C25.0422 4.41687 25.3631 3.85712 25.8125 3.40979C26.2619 2.96305 26.8238 2.64578 27.4388 2.49139C28.5073 2.21815 29.6423 2.45425 30.5134 3.13019C31.3846 3.80613 31.8956 4.8466 31.8967 5.94964C31.9004 6.76141 31.6234 7.54924 31.1125 8.18015C30.0636 9.51664 29.5018 11.1705 29.5197 12.8688V15.4575H27.1428V12.9617C27.1905 11.2422 26.6345 9.56027 25.5718 8.20786L25.5717 8.2078ZM34.2734 17.8344V21.3759C26.9049 21.1764 23.4266 19.1905 22.3887 18.4509V17.8344L34.2734 17.8344ZM11.137 26.3043C9.93951 25.0612 8.35041 24.2675 6.63725 24.0573C5.48804 23.9422 4.46092 23.2896 3.86818 22.298C3.54401 21.7536 3.37423 21.1307 3.37688 20.4967C3.37953 19.8627 3.55462 19.2414 3.88357 18.6997C4.45765 17.7452 5.43755 17.1069 6.54275 16.9674C7.64739 16.8284 8.75521 17.204 9.54788 17.9866C10.1283 18.5549 10.4928 19.3083 10.5782 20.1164C10.7857 21.8062 11.5651 23.3745 12.7876 24.5599L14.6287 26.3913L12.9281 28.0791L11.137 26.3043ZM19.7073 24.7115L20.0129 25.0171V29.1767C15.7497 32.6041 12.7373 33.3862 11.6649 33.5587L11.2177 33.1178L19.7073 24.7115ZM74.3171 49.5429H74.3166C74.1213 54.7616 71.9073 59.7006 68.1413 63.3183C64.3753 66.9363 59.3519 68.9508 54.1296 68.9375H23.9248C18.7025 68.9508 13.679 66.9363 9.91309 63.3183C6.14707 59.7003 3.93312 54.7613 3.7378 49.5429L3.42159 41.6551L74.632 41.6556L74.3171 49.5429ZM72.4973 24.376L69.4688 27.1679C67.5068 28.9728 64.9505 29.9946 62.2849 30.0393C60.8571 30.0717 59.4782 30.5651 58.3544 31.4463C57.2301 32.3271 56.422 33.5485 56.0501 34.9274L54.8935 39.2785H53.6456L59.6261 16.7642L63.7253 13.9486L64.4846 13.5098V13.5103C66.4296 12.3823 68.8071 12.2905 70.8333 13.2652C72.8595 14.2399 74.2718 16.1546 74.6051 18.3783C74.9383 20.6019 74.1489 22.8463 72.4971 24.3716L72.4973 24.376Z" fill="#A65E34"/>
<path d="M54.9045 20.653C55.4913 18.4564 55.069 16.1123 53.7532 14.258L52.1928 12.0572L52.1923 12.0567C51.4697 11.0359 50.3592 10.3562 49.1209 10.1763C47.8831 9.99647 46.6251 10.3328 45.642 11.1059C44.8998 11.6922 44.3575 12.4939 44.0901 13.4007C43.8227 14.308 43.8428 15.2752 44.1479 16.1703L45.7831 20.9682C46.2261 22.2681 47.2082 23.3144 48.4779 23.8381C49.7475 24.3623 51.1816 24.313 52.4126 23.7034C53.6435 23.0937 54.5518 21.9833 54.9047 20.6557L54.9045 20.653ZM48.8672 21.347C48.4794 21.0578 48.1892 20.6578 48.0353 20.1994L46.3965 15.4014C46.2505 14.9728 46.2405 14.5101 46.3683 14.0761C46.4962 13.6421 46.7551 13.2579 47.1095 12.9767C47.4926 12.6727 47.9669 12.5077 48.4561 12.5088C48.5633 12.5077 48.6699 12.5151 48.7755 12.5311C49.3697 12.6138 49.903 12.9396 50.2473 13.4309L51.8077 15.6317C52.7149 16.9109 53.0067 18.527 52.6024 20.0424C52.3992 20.8096 51.8289 21.4262 51.0792 21.6882C50.33 21.9503 49.4997 21.8235 48.8625 21.3497L48.8672 21.347Z" fill="#A65E34"/>
<path d="M69.7175 15.6497C68.555 15.1865 67.2525 15.2252 66.1197 15.7563L63.6738 16.8939C61.6099 17.85 60.0792 19.6756 59.4988 21.8749C59.1194 23.3053 59.4256 24.8308 60.327 26.0043C61.229 27.1774 62.6243 27.8655 64.1042 27.8672C64.2968 27.8677 64.4894 27.856 64.6804 27.8327C65.6386 27.7175 66.539 27.3133 67.2621 26.6739L71.0653 23.3186V23.3191C72.2569 22.268 72.8167 20.6727 72.5418 19.1074C72.2675 17.5417 71.1984 16.2322 69.7198 15.6497L69.7175 15.6497ZM69.4904 21.5364L65.6873 24.8917V24.8912C65.3254 25.2122 64.8739 25.4149 64.3943 25.4722C63.6059 25.5687 62.8217 25.2674 62.3001 24.6683C61.7791 24.0693 61.5892 23.2506 61.7934 22.4834C62.1945 20.9676 63.2493 19.709 64.6723 19.0501L67.1193 17.9115C67.4069 17.7773 67.7204 17.7078 68.0377 17.7067C68.3131 17.7078 68.5852 17.7598 68.8415 17.8601C69.5504 18.1391 70.0634 18.7668 70.195 19.517C70.3266 20.2678 70.0581 21.0323 69.4867 21.5364L69.4904 21.5364Z" fill="#A65E34"/>
</svg>
