<svg width="75" height="75" viewBox="0 0 75 75" fill="none" xmlns="http://www.w3.org/2000/svg">
<path d="M37.0021 0.000301894C27.1886 0.000301894 17.7775 3.89869 10.8376 10.8379C3.89855 17.7776 0 27.1899 0 37.0023C0 46.8148 3.8984 56.227 10.8376 63.1668C17.7773 70.1059 27.1897 74.0044 37.0021 74.0044C46.8146 74.0044 56.2268 70.106 63.1666 63.1668C70.1057 56.2271 74.0043 46.8148 74.0043 37.0023C73.9931 27.1919 70.0911 17.7868 63.1543 10.85C56.2174 3.91319 46.8128 0.0111762 37.0018 0L37.0021 0.000301894ZM37.0021 71.362C27.8896 71.362 19.1503 67.7419 12.7059 61.2984C6.26232 54.8549 2.64228 46.1154 2.64228 37.0022C2.64228 27.8891 6.26232 19.1505 12.7059 12.706C19.1494 6.26246 27.889 2.64242 37.0021 2.64242C46.1153 2.64242 54.8539 6.26246 61.2984 12.706C67.742 19.1495 71.362 27.8891 71.362 37.0022C71.352 46.1117 67.7284 54.8449 61.2872 61.2863C54.8461 67.7274 46.1117 71.3511 37.003 71.3611L37.0021 71.362Z" fill="#A65E34"/>
<path d="M37.0022 5.28662C28.5906 5.28662 20.5233 8.62817 14.5757 14.5762C8.62768 20.5242 5.28613 28.5914 5.28613 37.0027C5.28613 45.414 8.62768 53.4816 14.5757 59.4292C20.5237 65.3772 28.5909 68.7188 37.0022 68.7188C45.4135 68.7188 53.4811 65.3772 59.4287 59.4292C65.3767 53.4812 68.7183 45.414 68.7183 37.0027C68.7082 28.5939 65.3637 20.5328 59.4181 14.5868C53.4719 8.64116 45.4107 5.29659 37.0022 5.28662ZM37.0022 66.0763C29.2913 66.0763 21.8961 63.0133 16.444 57.5608C10.9915 52.1083 7.92841 44.7138 7.92841 37.0025C7.92841 29.2912 10.9915 21.8965 16.444 16.4443C21.8965 10.9918 29.2909 7.92875 37.0022 7.92875C44.7135 7.92875 52.1083 10.9918 57.5604 16.4443C63.0129 21.8968 66.076 29.2912 66.076 37.0025C66.0671 44.7104 63.0012 52.1003 57.5511 57.5502C52.1004 63.0003 44.7105 66.0664 37.0034 66.0751L37.0022 66.0763Z" fill="#A65E34"/>
<path d="M55.5683 31.5445L43.5555 29.8117L38.1727 18.9345L38.1732 18.9339C37.9496 18.482 37.4883 18.1965 36.9839 18.1983C36.4789 18.1971 36.0169 18.4838 35.7945 18.9369L30.4348 29.8247L18.4338 31.5851C17.94 31.6618 17.5323 32.0098 17.3789 32.4848C17.2255 32.9597 17.3529 33.4812 17.7081 33.8316L26.4077 42.2894L24.37 54.2544C24.2851 54.7506 24.4892 55.2515 24.8969 55.5465C25.304 55.842 25.8438 55.8804 26.2886 55.6462L37.0259 49.9872L47.7673 55.6366C48.2139 55.8738 48.7567 55.836 49.1656 55.5381C49.5738 55.2408 49.7773 54.7364 49.6888 54.2384L47.6246 42.2786L56.307 33.7974C56.6669 33.4458 56.7955 32.9207 56.6397 32.4422C56.484 31.9643 56.0698 31.6157 55.5719 31.5443L55.5683 31.5445ZM45.2764 40.8731C44.9654 41.1769 44.8244 41.614 44.8982 42.0424L46.6239 52.0487L37.6376 47.3337C37.2523 47.1325 36.7927 47.1325 36.4075 47.3337L27.4212 52.0688L29.1262 42.0584C29.1993 41.6295 29.0572 41.1923 28.7451 40.8891L21.4662 33.8083L31.5097 32.3387H31.5103C31.941 32.2756 32.3132 32.0048 32.5049 31.6142L36.9875 22.5035L41.4955 31.6065C41.6884 31.9965 42.0612 32.2661 42.4919 32.328L52.5419 33.7817L45.2764 40.8731Z" fill="#A65E34"/>
</svg>
