<svg width="57" height="65" viewBox="0 0 57 65" fill="none" xmlns="http://www.w3.org/2000/svg">
<path fill-rule="evenodd" clip-rule="evenodd" d="M0.365479 0.880371H57V57.58C57 61.2617 53.9971 64.2646 50.3154 64.2646H7.05086C3.36916 64.2646 0.36624 61.2617 0.36624 57.58V0.880371H0.365479ZM14.1852 10.6662C14.1852 8.3015 17.7836 8.3015 17.7836 10.6662V21.6112C17.7836 33.9647 39.5816 34.0268 39.5816 21.6112V10.6662C39.5816 8.3015 43.18 8.3015 43.18 10.6662V21.6112C43.18 38.7177 14.185 38.7863 14.185 21.6112L14.1852 10.6662ZM3.25113 3.76566H54.1128V57.5776C54.1128 59.6673 52.4052 61.3769 50.3135 61.3769H7.04896C4.95923 61.3769 3.24961 59.6693 3.24961 57.5776V3.76566H3.25113Z" fill="#A65E34"/>
</svg>
