<svg width="18" height="16" viewBox="0 0 18 16" fill="none" xmlns="http://www.w3.org/2000/svg">
<path d="M17.9478 3.15407L15.8135 1.02079C15.7971 1.00416 15.7776 0.990944 15.7561 0.981925C15.7346 0.972906 15.7115 0.968262 15.6881 0.968262C15.6648 0.968262 15.6417 0.972906 15.6202 0.981925C15.5987 0.990944 15.5792 1.00416 15.5628 1.02079L6.36839 10.2113C6.35203 10.228 6.33252 10.2412 6.311 10.2502C6.28948 10.2592 6.26639 10.2639 6.24305 10.2639C6.21972 10.2639 6.19662 10.2592 6.17511 10.2502C6.15359 10.2412 6.13408 10.228 6.11772 10.2113L2.43686 6.53189C2.4205 6.51525 2.401 6.50204 2.37948 6.49302C2.35796 6.484 2.33486 6.47936 2.31153 6.47936C2.2882 6.47936 2.2651 6.484 2.24358 6.49302C2.22207 6.50204 2.20256 6.51525 2.1862 6.53189L0.051863 8.66552C0.035281 8.68187 0.0221139 8.70136 0.0131268 8.72284C0.00413971 8.74433 -0.000488281 8.76738 -0.000488281 8.79067C-0.000488281 8.81396 0.00413971 8.83702 0.0131268 8.85851C0.0221139 8.87999 0.035281 8.89948 0.051863 8.91583L6.11702 14.9792C6.13338 14.9959 6.15289 15.0091 6.1744 15.0181C6.19592 15.0271 6.21902 15.0318 6.24235 15.0318C6.26568 15.0318 6.28878 15.0271 6.3103 15.0181C6.33182 15.0091 6.35132 14.9959 6.36768 14.9792L17.9478 3.40474C17.9644 3.38838 17.9776 3.36887 17.9867 3.34735C17.9957 3.32583 18.0003 3.30274 18.0003 3.2794C18.0003 3.25607 17.9957 3.23298 17.9867 3.21146C17.9776 3.18994 17.9644 3.17043 17.9478 3.15407V3.15407Z" fill="black"/>
</svg>
