<svg width="20" height="37" viewBox="0 0 20 37" fill="none" xmlns="http://www.w3.org/2000/svg">
<g clip-path="url(#clip0_102_244)">
<path fill-rule="evenodd" clip-rule="evenodd" d="M10 36.3295C15.5273 36.3295 20 32.2995 20 27.3192V8.47951H17.2727V27.3192C17.2727 30.9397 14.0182 33.8722 10 33.8722C5.98182 33.8722 2.72727 30.9397 2.72727 27.3192V6.84127C2.72727 4.58051 4.76364 2.74568 7.27273 2.74568C9.78182 2.74568 11.8182 4.58051 11.8182 6.84127V24.0428C11.8182 24.9438 11 25.681 10 25.681C9 25.681 8.18182 24.9438 8.18182 24.0428V8.47951H5.45455V24.0428C5.45455 26.3035 7.49091 28.1383 10 28.1383C12.5091 28.1383 14.5455 26.3035 14.5455 24.0428V6.84127C14.5455 3.22077 11.2909 0.28833 7.27273 0.28833C3.25455 0.28833 0 3.22077 0 6.84127V27.3192C0 32.2995 4.47273 36.3295 10 36.3295Z" fill="white"/>
</g>
<defs>
<clipPath id="clip0_102_244">
<rect width="20" height="36.0412" fill="white" transform="translate(0 0.28833)"/>
</clipPath>
</defs>
</svg>
