<svg width="32" height="32" viewBox="0 0 32 32" fill="none" xmlns="http://www.w3.org/2000/svg">
<path fill-rule="evenodd" clip-rule="evenodd" d="M0 16C0 7.16347 7.16347 0 16 0C24.8365 0 32 7.16347 32 16C32 24.8365 24.8365 32 16 32C7.16347 32 0 24.8365 0 16ZM22.5966 6.93333H9.93673C8.8692 6.93333 8 7.792 8 8.856V21.4747C8 22.5387 8.8692 23.3973 9.93673 23.3973H20.6503L20.1497 21.6707L21.3589 22.7813L22.5021 23.8267L24.5333 25.6V8.856C24.5333 7.792 23.6641 6.93333 22.5966 6.93333Z" fill="white"/>
<path fill-rule="evenodd" clip-rule="evenodd" d="M18.9498 19.1225C18.9498 19.1225 18.6096 18.7212 18.3262 18.3665C19.5638 18.0212 20.0362 17.2559 20.0362 17.2559C19.6489 17.5079 19.2804 17.6852 18.9498 17.8065C18.4774 18.0025 18.0239 18.1332 17.5798 18.2079C16.6729 18.3759 15.8415 18.3292 15.1329 18.1985C14.5944 18.0959 14.1315 17.9465 13.7441 17.7972C13.5268 17.7132 13.2906 17.6105 13.0544 17.4799C13.0261 17.4612 12.9978 17.4519 12.9694 17.4332C12.9505 17.4239 12.9411 17.4145 12.9316 17.4052C12.7616 17.3119 12.6671 17.2465 12.6671 17.2465C12.6671 17.2465 13.1206 17.9932 14.3204 18.3479C14.037 18.7025 13.6874 19.1225 13.6874 19.1225C11.5995 19.0572 10.8059 17.7039 10.8059 17.7039C10.8059 14.6985 12.1664 12.2625 12.1664 12.2625C13.5268 11.2545 14.8212 11.2825 14.8212 11.2825L14.9156 11.3945C13.215 11.8799 12.4309 12.6172 12.4309 12.6172C12.4309 12.6172 12.6388 12.5052 12.9883 12.3465C13.9992 11.9079 14.8022 11.7865 15.1329 11.7585C15.1896 11.7492 15.2368 11.7399 15.2935 11.7399C15.8698 11.6652 16.5217 11.6465 17.202 11.7212C18.0995 11.8239 19.0631 12.0852 20.0457 12.6172C20.0457 12.6172 19.2993 11.9172 17.6932 11.4319L17.8255 11.2825C17.8255 11.2825 19.1198 11.2545 20.4803 12.2625C20.4803 12.2625 21.8407 14.6985 21.8407 17.7039C21.8407 17.7039 21.0377 19.0572 18.9498 19.1225ZM14.8227 14.9332C14.2884 14.9332 13.8666 15.4137 13.8666 15.9999C13.8666 16.5861 14.2978 17.0665 14.8227 17.0665C15.357 17.0665 15.7788 16.5861 15.7788 15.9999C15.7881 15.4137 15.357 14.9332 14.8227 14.9332ZM18.2439 14.9332C17.7096 14.9332 17.2878 15.4137 17.2878 15.9999C17.2878 16.5861 17.719 17.0665 18.2439 17.0665C18.7782 17.0665 19.2 16.5861 19.2 15.9999C19.2 15.4137 18.7782 14.9332 18.2439 14.9332Z" fill="white"/>
</svg>
