<svg width="32" height="32" viewBox="0 0 32 32" fill="none" xmlns="http://www.w3.org/2000/svg">
<path d="M16.002 0.5271L0 12.474V31.473H32V12.474L16.002 0.5271ZM11.5751 9.05215C12.0447 8.19397 12.6916 7.54782 13.5124 7.11893C14.3311 6.68642 15.2653 6.46876 16.3219 6.46876C17.2126 6.46876 18.008 6.64378 18.7041 6.98858C19.3997 7.33861 19.9292 7.83106 20.3001 8.47198C20.6622 9.1137 20.8501 9.81336 20.8501 10.571C20.8501 11.475 20.5709 12.2925 20.0125 13.024C19.3124 13.9461 18.4188 14.4064 17.3249 14.4064C17.0304 14.4064 16.8103 14.3573 16.6594 14.2535C16.5126 14.1481 16.4096 13.9992 16.3605 13.7993C15.9493 14.2064 15.4629 14.4108 14.9165 14.4108C14.3271 14.4108 13.8387 14.2068 13.4508 13.8037C13.0622 13.3965 12.8686 12.8538 12.8686 12.1819C12.8686 11.3434 13.1012 10.5862 13.5699 9.89986C14.1396 9.0614 14.8646 8.64056 15.7522 8.64056C16.3842 8.64056 16.8509 8.88236 17.1503 9.36677L17.2834 8.77614H18.6916L17.8877 12.5899C17.8375 12.8337 17.8125 12.9866 17.8125 13.0578C17.8125 13.1495 17.8334 13.2107 17.8725 13.2577C17.9123 13.3024 17.9622 13.3241 18.0161 13.3241C18.1915 13.3241 18.41 13.2243 18.6783 13.0147C19.0408 12.748 19.3329 12.3815 19.5558 11.9304C19.7787 11.4762 19.8934 11.0055 19.8934 10.5191C19.8934 9.648 19.5788 8.91897 18.9471 8.32835C18.3142 7.74496 17.4303 7.44925 16.3005 7.44925C15.3378 7.44925 14.5234 7.64518 13.8556 8.03987C13.1877 8.42853 12.6836 8.98254 12.3408 9.69507C12.0032 10.4032 11.8346 11.1463 11.8346 11.916C11.8346 12.6627 12.0274 13.345 12.4023 13.9574C12.7825 14.5742 13.3116 15.02 13.994 15.3032C14.6763 15.5836 15.4597 15.724 16.3388 15.724C17.1825 15.724 17.9115 15.6062 18.5242 15.3696C19.1366 15.1334 19.6262 14.7834 19.9992 14.307H21.1285C20.7745 15.028 20.2325 15.5913 19.4995 16.0029C18.6578 16.4708 17.6327 16.7029 16.4241 16.7029C15.25 16.7029 14.241 16.507 13.3897 16.1123C12.5363 15.7156 11.9055 15.133 11.4866 14.3621C11.073 13.5905 10.869 12.7496 10.869 11.8403C10.8698 10.8437 11.1024 9.91354 11.5751 9.05215ZM1.12814 12.851L12.9342 20.7689L1.12814 29.9067V12.851ZM2.02494 30.5146L16.002 19.6979L29.9747 30.5146H2.02494ZM30.8706 29.9067L19.067 20.7689L30.8711 12.851V29.9067H30.8706ZM16.5782 9.92199C16.7656 10.1356 16.8594 10.443 16.8594 10.8441C16.8594 11.2026 16.7894 11.5909 16.653 12.0025C16.5186 12.4193 16.3541 12.7371 16.1666 12.9524C16.0386 13.1032 15.9018 13.2147 15.7675 13.2847C15.5908 13.3849 15.4029 13.4336 15.2002 13.4336C14.929 13.436 14.7053 13.3273 14.5198 13.1141C14.3388 12.9005 14.249 12.5726 14.249 12.1224C14.249 11.7848 14.3126 11.3961 14.445 10.96C14.5773 10.5223 14.7709 10.1891 15.0296 9.95056C15.2899 9.71398 15.5711 9.5961 15.8745 9.5961C16.1585 9.59811 16.3947 9.70634 16.5782 9.92199Z" fill="white"/>
</svg>
