<svg width="32" height="32" viewBox="0 0 32 32" fill="none" xmlns="http://www.w3.org/2000/svg">
<path d="M31.9847 25.2482C32.0525 25.7677 31.8942 26.2194 31.5105 26.6033L27.0049 31.0748C26.8017 31.3006 26.5364 31.4927 26.2089 31.6506C25.8814 31.8088 25.5597 31.9104 25.2436 31.9555C25.221 31.9555 25.1531 31.9613 25.0401 31.9726C24.9274 31.9839 24.7806 31.9896 24.5999 31.9896C24.1707 31.9896 23.4762 31.9162 22.5163 31.7694C21.5565 31.6225 20.3822 31.2611 18.9934 30.6853C17.6042 30.1094 16.0291 29.2455 14.2676 28.0938C12.5061 26.9422 10.6315 25.3612 8.64412 23.3512C7.06323 21.7929 5.75335 20.3023 4.71448 18.8796C3.67562 17.4567 2.84 16.1412 2.20765 14.9329C1.57524 13.7247 1.10097 12.6294 0.784797 11.647C0.46862 10.6645 0.254071 9.81764 0.141151 9.10624C0.0282301 8.39484 -0.0169381 7.83589 0.00564602 7.42937C0.0282301 7.02286 0.0395222 6.79702 0.0395222 6.75185C0.0846903 6.43567 0.186319 6.11385 0.344407 5.78638C0.502496 5.45891 0.694461 5.19355 0.920302 4.99029L5.42583 0.484764C5.74201 0.168587 6.10335 0.010498 6.50986 0.010498C6.80346 0.010498 7.06318 0.0951884 7.28902 0.264569C7.51486 0.43395 7.70682 0.642853 7.86491 0.891278L11.4897 7.76813C11.6929 8.12948 11.7494 8.5247 11.659 8.9538C11.5687 9.3829 11.3767 9.74424 11.0831 10.0378L9.42321 11.6978C9.37805 11.7429 9.33852 11.8163 9.30465 11.918C9.27077 12.0196 9.25383 12.1043 9.25383 12.172C9.34417 12.6463 9.54743 13.1883 9.8636 13.7981C10.1346 14.3401 10.5524 15.0007 11.117 15.7798C11.6816 16.559 12.4834 17.4567 13.5222 18.4729C14.5385 19.5119 15.4419 20.3192 16.2323 20.8952C17.0226 21.4709 17.6834 21.8945 18.2141 22.1655C18.7449 22.4365 19.1514 22.6002 19.4336 22.6565L19.857 22.7413C19.9021 22.7413 19.9757 22.7243 20.0772 22.6905C20.1788 22.6565 20.2522 22.6171 20.2975 22.5718L22.2283 20.607C22.6351 20.2457 23.1091 20.0651 23.6512 20.0651C24.0352 20.0651 24.34 20.1328 24.5658 20.2683H24.5996L31.1377 24.1302C31.6121 24.424 31.8943 24.7965 31.9847 25.2482Z" fill="white"/>
</svg>
